<svg width="500" height="500" viewBox="0 0 500 500" fill="none" xmlns="http://www.w3.org/2000/svg">
<g clip-path="url(#clip0_115_514)">
<g clip-path="url(#clip1_115_514)">
<path d="M250 0C112.25 0 0.58252 111.929 0.58252 250C0.58252 388.071 112.25 500 250 500C387.749 500 499.417 388.071 499.417 250C499.417 111.929 387.749 0 250 0ZM250 400.424C167.115 400.424 99.9265 333.073 99.9265 250C99.9265 166.925 167.115 99.576 250 99.576C332.884 99.576 400.073 166.922 400.073 250C400.073 333.078 332.88 400.424 250 400.424Z" fill="url(#paint0_linear_115_514)" fill-opacity="0.9"/>
</g>
</g>
<defs>
<linearGradient id="paint0_linear_115_514" x1="64.4215" y1="327.381" x2="420.732" y2="327.381" gradientUnits="userSpaceOnUse">
<stop stop-color="#1D71B8"/>
<stop offset="1" stop-color="#011B3C"/>
</linearGradient>
<clipPath id="clip0_115_514">
<rect width="500" height="500" fill="white"/>
</clipPath>
<clipPath id="clip1_115_514">
<rect width="498.835" height="500" fill="white" transform="translate(0.58252)"/>
</clipPath>
</defs>
</svg>
