<svg width="14" height="16" viewBox="0 0 14 16" fill="none" xmlns="http://www.w3.org/2000/svg">
<path d="M4.50143 0.578125C5.02018 0.578125 5.43929 0.99707 5.43929 1.51562V2.45312H9.19071V1.51562C9.19071 0.99707 9.60982 0.578125 10.1286 0.578125C10.6473 0.578125 11.0664 0.99707 11.0664 1.51562V2.45312H12.4732C13.2499 2.45312 13.88 3.08301 13.88 3.85938V5.26562H0.75V3.85938C0.75 3.08301 1.38012 2.45312 2.15679 2.45312H3.56357V1.51562C3.56357 0.99707 3.98268 0.578125 4.50143 0.578125ZM0.75 6.20312H13.88V14.1719C13.88 14.9482 13.2499 15.5781 12.4732 15.5781H2.15679C1.38012 15.5781 0.75 14.9482 0.75 14.1719V6.20312ZM2.62571 8.54688V9.48438C2.62571 9.74219 2.83673 9.95312 3.09464 9.95312H4.0325C4.29041 9.95312 4.50143 9.74219 4.50143 9.48438V8.54688C4.50143 8.28906 4.29041 8.07812 4.0325 8.07812H3.09464C2.83673 8.07812 2.62571 8.28906 2.62571 8.54688ZM6.37714 8.54688V9.48438C6.37714 9.74219 6.58816 9.95312 6.84607 9.95312H7.78393C8.04184 9.95312 8.25286 9.74219 8.25286 9.48438V8.54688C8.25286 8.28906 8.04184 8.07812 7.78393 8.07812H6.84607C6.58816 8.07812 6.37714 8.28906 6.37714 8.54688ZM10.5975 8.07812C10.3396 8.07812 10.1286 8.28906 10.1286 8.54688V9.48438C10.1286 9.74219 10.3396 9.95312 10.5975 9.95312H11.5354C11.7933 9.95312 12.0043 9.74219 12.0043 9.48438V8.54688C12.0043 8.28906 11.7933 8.07812 11.5354 8.07812H10.5975ZM2.62571 12.2969V13.2344C2.62571 13.4922 2.83673 13.7031 3.09464 13.7031H4.0325C4.29041 13.7031 4.50143 13.4922 4.50143 13.2344V12.2969C4.50143 12.0391 4.29041 11.8281 4.0325 11.8281H3.09464C2.83673 11.8281 2.62571 12.0391 2.62571 12.2969ZM6.84607 11.8281C6.58816 11.8281 6.37714 12.0391 6.37714 12.2969V13.2344C6.37714 13.4922 6.58816 13.7031 6.84607 13.7031H7.78393C8.04184 13.7031 8.25286 13.4922 8.25286 13.2344V12.2969C8.25286 12.0391 8.04184 11.8281 7.78393 11.8281H6.84607ZM10.1286 12.2969V13.2344C10.1286 13.4922 10.3396 13.7031 10.5975 13.7031H11.5354C11.7933 13.7031 12.0043 13.4922 12.0043 13.2344V12.2969C12.0043 12.0391 11.7933 11.8281 11.5354 11.8281H10.5975C10.3396 11.8281 10.1286 12.0391 10.1286 12.2969Z" fill="url(#paint0_linear_141_22565)"/>
<defs>
<linearGradient id="paint0_linear_141_22565" x1="1.0884" y1="14.9531" x2="13.0091" y2="15.0448" gradientUnits="userSpaceOnUse">
<stop stop-color="#0069AA"/>
<stop offset="1" stop-color="#009DDC"/>
</linearGradient>
</defs>
</svg>
