<svg width="39" height="39" viewBox="0 0 39 39" fill="none" xmlns="http://www.w3.org/2000/svg">
<g clip-path="url(#clip0_117_1958)">
<path d="M35.679 5.73073H35.0457V2.56406C35.0457 1.51653 34.1932 0.664062 33.1457 0.664062H31.879C30.8315 0.664062 29.979 1.51653 29.979 2.56406V5.73073H9.71237V2.56406C9.71237 1.51653 8.8599 0.664062 7.81237 0.664062H6.5457C5.49817 0.664062 4.6457 1.51653 4.6457 2.56406V5.73073H4.01237C2.26627 5.73073 0.845703 7.1513 0.845703 8.8974V35.4974C0.845703 37.2435 2.26627 38.6641 4.01237 38.6641H35.679C37.4251 38.6641 38.8457 37.2435 38.8457 35.4974V8.8974C38.8457 7.1513 37.4251 5.73073 35.679 5.73073ZM31.2457 6.36406V2.56406C31.2457 2.21446 31.5294 1.93073 31.879 1.93073H33.1457C33.4953 1.93073 33.779 2.21446 33.779 2.56406V6.36406V8.8974C33.779 9.247 33.4953 9.53073 33.1457 9.53073H31.879C31.5294 9.53073 31.2457 9.247 31.2457 8.8974V6.36406ZM5.91237 6.36406V2.56406C5.91237 2.21446 6.1961 1.93073 6.5457 1.93073H7.81237C8.16197 1.93073 8.4457 2.21446 8.4457 2.56406V6.36406V8.8974C8.4457 9.247 8.16197 9.53073 7.81237 9.53073H6.5457C6.1961 9.53073 5.91237 9.247 5.91237 8.8974V6.36406ZM37.579 35.4974C37.579 36.5449 36.7266 37.3974 35.679 37.3974H4.01237C2.96484 37.3974 2.11237 36.5449 2.11237 35.4974V17.1307H37.579V35.4974ZM37.579 15.8641H2.11237V8.8974C2.11237 7.84986 2.96484 6.9974 4.01237 6.9974H4.6457V8.8974C4.6457 9.94493 5.49817 10.7974 6.5457 10.7974H7.81237C8.8599 10.7974 9.71237 9.94493 9.71237 8.8974V6.9974H29.979V8.8974C29.979 9.94493 30.8315 10.7974 31.879 10.7974H33.1457C34.1932 10.7974 35.0457 9.94493 35.0457 8.8974V6.9974H35.679C36.7266 6.9974 37.579 7.84986 37.579 8.8974V15.8641Z" fill="#021939"/>
<path d="M26.8128 8.89844H12.8794C12.5292 8.89844 12.2461 9.18154 12.2461 9.53177V13.3318C12.2461 13.682 12.5292 13.9651 12.8794 13.9651H26.8128C27.163 13.9651 27.4461 13.682 27.4461 13.3318V9.53177C27.4461 9.18154 27.163 8.89844 26.8128 8.89844ZM26.1794 12.6984H13.5128V10.1651H26.1794V12.6984Z" fill="#021939"/>
<path d="M9.07884 19.0312H5.27884C4.92861 19.0312 4.64551 19.3144 4.64551 19.6646V22.8312C4.64551 23.1815 4.92861 23.4646 5.27884 23.4646H9.07884C9.42907 23.4646 9.71217 23.1815 9.71217 22.8312V19.6646C9.71217 19.3144 9.42907 19.0312 9.07884 19.0312ZM8.44551 22.1979H5.91217V20.2979H8.44551V22.1979Z" fill="#021939"/>
<path d="M17.3122 19.0312H13.5122C13.162 19.0312 12.8789 19.3144 12.8789 19.6646V22.8312C12.8789 23.1815 13.162 23.4646 13.5122 23.4646H17.3122C17.6625 23.4646 17.9456 23.1815 17.9456 22.8312V19.6646C17.9456 19.3144 17.6625 19.0312 17.3122 19.0312ZM16.6789 22.1979H14.1456V20.2979H16.6789V22.1979Z" fill="#021939"/>
<path d="M26.1794 19.0312H22.3794C22.0292 19.0312 21.7461 19.3144 21.7461 19.6646V22.8312C21.7461 23.1815 22.0292 23.4646 22.3794 23.4646H26.1794C26.5297 23.4646 26.8128 23.1815 26.8128 22.8312V19.6646C26.8128 19.3144 26.5297 19.0312 26.1794 19.0312ZM25.5461 22.1979H23.0128V20.2979H25.5461V22.1979Z" fill="#021939"/>
<path d="M34.4128 19.0312H30.6128C30.2626 19.0312 29.9795 19.3144 29.9795 19.6646V22.8312C29.9795 23.1815 30.2626 23.4646 30.6128 23.4646H34.4128C34.7631 23.4646 35.0462 23.1815 35.0462 22.8312V19.6646C35.0462 19.3144 34.7631 19.0312 34.4128 19.0312ZM33.7795 22.1979H31.2462V20.2979H33.7795V22.1979Z" fill="#021939"/>
<path d="M9.07884 25.3633H5.27884C4.92861 25.3633 4.64551 25.6464 4.64551 25.9966V29.1633C4.64551 29.5135 4.92861 29.7966 5.27884 29.7966H9.07884C9.42907 29.7966 9.71217 29.5135 9.71217 29.1633V25.9966C9.71217 25.6464 9.42907 25.3633 9.07884 25.3633ZM8.44551 28.5299H5.91217V26.6299H8.44551V28.5299Z" fill="#021939"/>
<path d="M17.3122 25.3633H13.5122C13.162 25.3633 12.8789 25.6464 12.8789 25.9966V29.1633C12.8789 29.5135 13.162 29.7966 13.5122 29.7966H17.3122C17.6625 29.7966 17.9456 29.5135 17.9456 29.1633V25.9966C17.9456 25.6464 17.6625 25.3633 17.3122 25.3633ZM16.6789 28.5299H14.1456V26.6299H16.6789V28.5299Z" fill="#021939"/>
<path d="M26.1794 25.3633H22.3794C22.0292 25.3633 21.7461 25.6464 21.7461 25.9966V29.1633C21.7461 29.5135 22.0292 29.7966 22.3794 29.7966H26.1794C26.5297 29.7966 26.8128 29.5135 26.8128 29.1633V25.9966C26.8128 25.6464 26.5297 25.3633 26.1794 25.3633ZM25.5461 28.5299H23.0128V26.6299H25.5461V28.5299Z" fill="#021939"/>
<path d="M34.4128 25.3633H30.6128C30.2626 25.3633 29.9795 25.6464 29.9795 25.9966V29.1633C29.9795 29.5135 30.2626 29.7966 30.6128 29.7966H34.4128C34.7631 29.7966 35.0462 29.5135 35.0462 29.1633V25.9966C35.0462 25.6464 34.7631 25.3633 34.4128 25.3633ZM33.7795 28.5299H31.2462V26.6299H33.7795V28.5299Z" fill="#021939"/>
<path d="M9.07884 31.6992H5.27884C4.92861 31.6992 4.64551 31.9823 4.64551 32.3326V35.4992C4.64551 35.8495 4.92861 36.1326 5.27884 36.1326H9.07884C9.42907 36.1326 9.71217 35.8495 9.71217 35.4992V32.3326C9.71217 31.9823 9.42907 31.6992 9.07884 31.6992ZM8.44551 34.8659H5.91217V32.9659H8.44551V34.8659Z" fill="#021939"/>
<path d="M17.3122 31.6992H13.5122C13.162 31.6992 12.8789 31.9823 12.8789 32.3326V35.4992C12.8789 35.8495 13.162 36.1326 13.5122 36.1326H17.3122C17.6625 36.1326 17.9456 35.8495 17.9456 35.4992V32.3326C17.9456 31.9823 17.6625 31.6992 17.3122 31.6992ZM16.6789 34.8659H14.1456V32.9659H16.6789V34.8659Z" fill="#021939"/>
<path d="M26.3259 31.293L23.6032 34.5603L22.1934 33.1505L21.2979 34.0461L23.1979 35.9461C23.3163 36.0658 23.4778 36.1316 23.6456 36.1316C23.6551 36.1316 23.6646 36.1316 23.6741 36.131C23.8521 36.1228 24.018 36.0404 24.1327 35.9043L27.2993 32.1043L26.3259 31.293Z" fill="#021939"/>
<path d="M33.9255 31.293L31.2028 34.5603L29.793 33.1505L28.8975 34.0461L30.7975 35.9461C30.9159 36.0658 31.0774 36.1316 31.2452 36.1316C31.2547 36.1316 31.2642 36.1316 31.2737 36.131C31.4517 36.1228 31.6176 36.0404 31.7323 35.9043L34.8989 32.1043L33.9255 31.293Z" fill="#021939"/>
</g>
<defs>
<clipPath id="clip0_117_1958">
<rect width="38" height="38" fill="white" transform="translate(0.845703 0.664062)"/>
</clipPath>
</defs>
</svg>
