<svg width="53" height="58" viewBox="0 0 53 58" fill="none" xmlns="http://www.w3.org/2000/svg">
<rect x="10.5" y="28.2383" width="6" height="6" stroke="#021939" stroke-linecap="round" stroke-linejoin="round"/>
<rect x="10.5" y="41.2383" width="6" height="6" stroke="#021939" stroke-linecap="round" stroke-linejoin="round"/>
<rect x="23.5" y="28.2383" width="6" height="6" stroke="#021939" stroke-linecap="round" stroke-linejoin="round"/>
<rect x="23.5" y="41.2383" width="6" height="6" stroke="#021939" stroke-linecap="round" stroke-linejoin="round"/>
<rect x="35.5" y="28.2383" width="6" height="6" fill="url(#paint0_linear_141_14575)" stroke="#021939" stroke-linecap="round" stroke-linejoin="round"/>
<rect x="35.5" y="41.2383" width="6" height="6" stroke="#021939" stroke-linecap="round" stroke-linejoin="round"/>
<path d="M51.5 20.2383H0.5V9.23828C0.5 7.58143 1.84315 6.23828 3.5 6.23828H48.5C50.1569 6.23828 51.5 7.58143 51.5 9.23828V20.2383Z" fill="url(#paint1_linear_141_14575)"/>
<path d="M49.5 5.90625H2.83333C1.54467 5.90625 0.5 6.95092 0.5 8.23958V54.9062C0.5 56.1949 1.54467 57.2396 2.83333 57.2396H49.5C50.7887 57.2396 51.8333 56.1949 51.8333 54.9062V8.23958C51.8333 6.95092 50.7887 5.90625 49.5 5.90625Z" stroke="#021939" stroke-linecap="round" stroke-linejoin="round"/>
<path d="M40.167 1.23828V10.5716" stroke="#021939" stroke-linecap="round" stroke-linejoin="round"/>
<path d="M12.167 1.23828V10.5716" stroke="#021939" stroke-linecap="round" stroke-linejoin="round"/>
<path d="M0.5 19.9062H51.8333" stroke="#021939" stroke-linecap="round" stroke-linejoin="round"/>
<defs>
<linearGradient id="paint0_linear_141_14575" x1="35.6546" y1="33.9883" x2="41.1019" y2="34.0361" gradientUnits="userSpaceOnUse">
<stop stop-color="#0069AA"/>
<stop offset="1" stop-color="#009DDC"/>
</linearGradient>
<linearGradient id="paint1_linear_141_14575" x1="1.81443" y1="19.6549" x2="48.0724" y2="21.1355" gradientUnits="userSpaceOnUse">
<stop stop-color="#0069AA"/>
<stop offset="1" stop-color="#009DDC"/>
</linearGradient>
</defs>
</svg>
