<svg width="41" height="41" viewBox="0 0 41 41" fill="none" xmlns="http://www.w3.org/2000/svg">
<path d="M32.9078 39.6637V39.6638C33.6684 39.6719 34.4209 39.5072 35.1085 39.182L35.114 39.1794C36.4816 38.5429 37.3179 37.6149 38.2197 36.2668C38.7177 35.5118 39.1452 34.7126 39.4969 33.8793L39.4982 33.8763C39.5346 33.7908 39.5699 33.7117 39.5989 33.6469L39.6117 33.6182C39.6119 33.6177 39.6122 33.6172 39.6124 33.6166C39.809 33.1719 39.9347 32.8492 39.7694 32.4117L39.7694 32.4115C39.6421 32.0744 39.362 31.7111 38.5617 30.9046L38.5614 30.9042C37.8371 30.1737 36.5942 29.269 35.2841 28.4239C33.9883 27.5881 32.6994 26.8566 31.9324 26.4698C30.6332 25.8147 30.1195 25.5787 29.5374 25.5787H29.5321C28.9031 25.5787 28.3964 25.8687 27.4265 26.59L27.4224 26.5931L27.4224 26.5931C27.3096 26.6761 27.2015 26.7587 27.088 26.8455C27.0677 26.8609 27.0473 26.8766 27.0266 26.8923C26.5892 27.2263 26.2047 27.5139 25.8489 27.6821C25.3952 27.8965 24.9841 27.9253 24.5458 27.8317L32.9078 39.6637ZM32.9078 39.6637H32.8971M32.9078 39.6637H32.8971M32.8971 39.6637C31.3933 39.6637 29.1183 39.1187 25.5261 37.1122C21.1268 34.6455 17.7569 32.3894 13.4017 28.0465C9.19297 23.8412 7.16941 21.151 4.30309 15.9362L4.30298 15.936M32.8971 39.6637L4.30298 15.936M4.30298 15.936C1.10456 10.1202 1.78553 7.33432 2.23033 6.38344L2.23092 6.38218M4.30298 15.936L2.23092 6.38218M2.23092 6.38218C2.86569 5.02025 3.79462 4.18771 5.14912 3.2831C5.90571 2.7878 6.70628 2.36315 7.54071 2.01451L7.54073 2.01456M2.23092 6.38218L7.54073 2.01456M7.54073 2.01456L7.55015 2.01051M7.54073 2.01456L7.55015 2.01051M7.55015 2.01051C7.64461 1.9699 7.73187 1.93143 7.80876 1.89716L7.80876 1.89717M7.55015 2.01051L7.80876 1.89717M7.80876 1.89717L7.81235 1.89555M7.80876 1.89717L7.81235 1.89555M7.81235 1.89555C8.24457 1.70087 8.57213 1.57535 9.00759 1.74034L9.0105 1.74143M7.81235 1.89555L9.0105 1.74143M9.0105 1.74143C9.34927 1.86858 9.71475 2.14813 10.5222 2.94537L10.5226 2.94584M9.0105 1.74143L10.5226 2.94584M10.5226 2.94584C11.2569 3.66984 12.1705 4.88919 13.0195 6.18293C13.8631 7.46836 14.5947 8.75301 14.9767 9.57018C15.5532 10.8082 15.7956 11.3715 15.7964 11.9788C15.7964 12.6422 15.4792 13.1931 14.8515 14.0487L14.8509 14.0495M10.5226 2.94584L14.8509 14.0495M14.8509 14.0495C14.7437 14.1959 14.6369 14.3367 14.5272 14.4812L14.5165 14.4952L14.8509 14.0495ZM13.6041 16.9228L13.6037 16.9211C13.5121 16.4916 13.5413 16.0876 13.7504 15.6431C13.9141 15.2951 14.1931 14.9201 14.5157 14.4962L13.6041 16.9228ZM13.6041 16.9228C13.7427 17.5674 14.2458 18.6125 14.9584 19.7396M13.6041 16.9228L14.9584 19.7396M14.9584 19.7396C15.6941 20.9033 16.7209 22.2611 18.0004 23.5375M14.9584 19.7396L18.0004 23.5375M18.0004 23.5375C19.2806 24.8147 20.6217 25.8175 21.7698 26.53M18.0004 23.5375L21.7698 26.53M21.7698 26.53C22.8856 27.2226 23.9066 27.6953 24.5453 27.8316L21.7698 26.53Z" stroke="#021939" stroke-width="2"/>
</svg>
