<svg width="97" height="97" viewBox="0 0 97 97" fill="none" xmlns="http://www.w3.org/2000/svg">
<path d="M48.5 71.2344C51.8482 71.2344 54.5625 68.5201 54.5625 65.1719C54.5625 61.8236 51.8482 59.1094 48.5 59.1094C45.1518 59.1094 42.4375 61.8236 42.4375 65.1719C42.4375 68.5201 45.1518 71.2344 48.5 71.2344Z" fill="#FFD199"/>
<path d="M37.8906 93.9688V80.3281C37.8906 78.3183 38.689 76.3908 40.1102 74.9696C41.5314 73.5484 43.4589 72.75 45.4688 72.75H51.5312C53.5411 72.75 55.4686 73.5484 56.8898 74.9696C58.311 76.3908 59.1094 78.3183 59.1094 80.3281V93.9688H37.8906Z" fill="#88AE4B"/>
<path d="M75.7812 74.2656C78.2924 74.2656 80.3281 72.2299 80.3281 69.7188C80.3281 67.2076 78.2924 65.1719 75.7812 65.1719C73.2701 65.1719 71.2344 67.2076 71.2344 69.7188C71.2344 72.2299 73.2701 74.2656 75.7812 74.2656Z" fill="#FFD199"/>
<path d="M68.2031 90.9375V81.8438C68.2031 80.2359 68.8419 78.6939 69.9788 77.5569C71.1157 76.42 72.6578 75.7812 74.2656 75.7812H77.2969C78.9047 75.7812 80.4468 76.42 81.5837 77.5569C82.7206 78.6939 83.3594 80.2359 83.3594 81.8438V90.9375H68.2031Z" fill="#458BE6"/>
<path d="M21.2188 74.2656C23.7299 74.2656 25.7656 72.2299 25.7656 69.7188C25.7656 67.2076 23.7299 65.1719 21.2188 65.1719C18.7076 65.1719 16.6719 67.2076 16.6719 69.7188C16.6719 72.2299 18.7076 74.2656 21.2188 74.2656Z" fill="#FFD199"/>
<path d="M13.6406 90.9375V81.8438C13.6406 80.2359 14.2794 78.6939 15.4163 77.5569C16.5532 76.42 18.0953 75.7812 19.7031 75.7812H22.7344C24.3422 75.7812 25.8843 76.42 27.0212 77.5569C28.1581 78.6939 28.7969 80.2359 28.7969 81.8438V90.9375H13.6406Z" fill="#458BE6"/>
<path d="M56.5326 11.3516L44.7562 23.1431L40.467 18.8539L36.1777 23.1431L43.6801 30.6455C43.964 30.9278 44.3482 31.0862 44.7486 31.0862C45.149 31.0862 45.5331 30.9278 45.8171 30.6455L60.8218 15.6408L56.5326 11.3516Z" fill="#F2F2F2"/>
<path d="M52.865 71.3412C54.1809 70.414 55.1673 69.0919 55.6813 67.5665C56.1954 66.041 56.2103 64.3915 55.724 62.857C55.2377 61.3225 54.2754 59.9827 52.9765 59.0318C51.6776 58.0809 50.1097 57.5684 48.5 57.5684C46.8903 57.5684 45.3224 58.0809 44.0235 59.0318C42.7246 59.9827 41.7623 61.3225 41.276 62.857C40.7897 64.3915 40.8046 66.041 41.3187 67.5665C41.8327 69.0919 42.8191 70.414 44.135 71.3412C41.9792 71.6609 40.0099 72.7441 38.5856 74.3937C37.1613 76.0433 36.3769 78.1495 36.375 80.3289V93.9695C36.375 94.3715 36.5347 94.757 36.8189 95.0412C37.1031 95.3254 37.4887 95.4851 37.8906 95.4851H59.1094C59.5113 95.4851 59.8969 95.3254 60.1811 95.0412C60.4653 94.757 60.625 94.3715 60.625 93.9695V80.3289C60.6231 78.1495 59.8387 76.0433 58.4144 74.3937C56.9901 72.7441 55.0208 71.6609 52.865 71.3412ZM43.9531 65.1726C43.9531 64.2733 44.2198 63.3943 44.7194 62.6465C45.219 61.8988 45.9292 61.316 46.76 60.9719C47.5908 60.6277 48.505 60.5377 49.387 60.7131C50.2691 60.8886 51.0792 61.3216 51.7151 61.9575C52.351 62.5934 52.7841 63.4036 52.9595 64.2856C53.135 65.1676 53.0449 66.0818 52.7008 66.9126C52.3566 67.7435 51.7738 68.4536 51.0261 68.9532C50.2784 69.4528 49.3993 69.7195 48.5 69.7195C47.2941 69.7195 46.1376 69.2405 45.2849 68.3878C44.4322 67.535 43.9531 66.3785 43.9531 65.1726ZM57.5938 92.4539H39.4062V80.3289C39.4062 78.721 40.045 77.179 41.1819 76.042C42.3189 74.9051 43.8609 74.2664 45.4688 74.2664H51.5312C53.1391 74.2664 54.6811 74.9051 55.8181 76.042C56.955 77.179 57.5938 78.721 57.5938 80.3289V92.4539Z" fill="#021939"/>
<path d="M79.3581 74.5843C80.3907 73.8298 81.1582 72.7681 81.5509 71.551C81.9436 70.3339 81.9413 69.0239 81.5445 67.8081C81.1476 66.5924 80.3765 65.5333 79.3413 64.7823C78.3062 64.0314 77.0601 63.627 75.7812 63.627C74.5024 63.627 73.2563 64.0314 72.2212 64.7823C71.186 65.5333 70.4149 66.5924 70.018 67.8081C69.6212 69.0239 69.6189 70.3339 70.0116 71.551C70.4043 72.7681 71.1718 73.8298 72.2044 74.5843C70.6215 75.0317 69.2271 75.982 68.2319 77.2917C67.2367 78.6013 66.6946 80.1993 66.6875 81.8442V90.9379C66.6875 91.3399 66.8472 91.7254 67.1314 92.0096C67.4156 92.2939 67.8012 92.4536 68.2031 92.4536H83.3594C83.7613 92.4536 84.1469 92.2939 84.4311 92.0096C84.7153 91.7254 84.875 91.3399 84.875 90.9379V81.8442C84.8679 80.1993 84.3258 78.6013 83.3306 77.2917C82.3354 75.982 80.941 75.0317 79.3581 74.5843ZM75.7812 66.6879C76.3808 66.6879 76.9668 66.8657 77.4653 67.1988C77.9638 67.5319 78.3523 68.0053 78.5818 68.5592C78.8112 69.1131 78.8712 69.7225 78.7543 70.3105C78.6373 70.8986 78.3486 71.4387 77.9247 71.8626C77.5007 72.2865 76.9606 72.5752 76.3726 72.6922C75.7846 72.8091 75.1751 72.7491 74.6212 72.5197C74.0674 72.2903 73.5939 71.9017 73.2609 71.4032C72.9278 70.9048 72.75 70.3187 72.75 69.7192C72.75 68.9152 73.0694 68.1442 73.6378 67.5758C74.2063 67.0073 74.9773 66.6879 75.7812 66.6879ZM81.8438 89.4223H69.7188V81.8442C69.7188 80.6383 70.1978 79.4818 71.0505 78.6291C71.9032 77.7763 73.0597 77.2973 74.2656 77.2973H77.2969C78.5028 77.2973 79.6593 77.7763 80.512 78.6291C81.3647 79.4818 81.8438 80.6383 81.8438 81.8442V89.4223Z" fill="#021939"/>
<path d="M24.7956 74.5843C25.8282 73.8298 26.5957 72.7681 26.9884 71.551C27.3811 70.3339 27.3788 69.0239 26.982 67.8081C26.5851 66.5924 25.814 65.5333 24.7788 64.7823C23.7437 64.0314 22.4976 63.627 21.2188 63.627C19.9399 63.627 18.6938 64.0314 17.6587 64.7823C16.6235 65.5333 15.8524 66.5924 15.4555 67.8081C15.0587 69.0239 15.0564 70.3339 15.4491 71.551C15.8418 72.7681 16.6093 73.8298 17.6419 74.5843C16.059 75.0317 14.6646 75.982 13.6694 77.2917C12.6742 78.6013 12.1321 80.1993 12.125 81.8442V90.9379C12.125 91.3399 12.2847 91.7254 12.5689 92.0096C12.8532 92.2939 13.2387 92.4536 13.6406 92.4536H28.7969C29.1988 92.4536 29.5844 92.2939 29.8686 92.0096C30.1528 91.7254 30.3125 91.3399 30.3125 90.9379V81.8442C30.3054 80.1993 29.7633 78.6013 28.7681 77.2917C27.7729 75.982 26.3785 75.0317 24.7956 74.5843ZM21.2188 66.6879C21.8183 66.6879 22.4043 66.8657 22.9028 67.1988C23.4013 67.5319 23.7898 68.0053 24.0193 68.5592C24.2487 69.1131 24.3087 69.7225 24.1918 70.3105C24.0748 70.8986 23.7861 71.4387 23.3622 71.8626C22.9382 72.2865 22.3981 72.5752 21.8101 72.6922C21.2221 72.8091 20.6126 72.7491 20.0587 72.5197C19.5049 72.2903 19.0314 71.9017 18.6984 71.4032C18.3653 70.9048 18.1875 70.3187 18.1875 69.7192C18.1875 68.9152 18.5069 68.1442 19.0753 67.5758C19.6438 67.0073 20.4148 66.6879 21.2188 66.6879ZM27.2812 89.4223H15.1562V81.8442C15.1562 80.6383 15.6353 79.4818 16.488 78.6291C17.3407 77.7763 18.4972 77.2973 19.7031 77.2973H22.7344C23.9403 77.2973 25.0968 77.7763 25.9495 78.6291C26.8022 79.4818 27.2812 80.6383 27.2812 81.8442V89.4223Z" fill="#021939"/>
<path d="M57.5935 10.2755C57.4519 10.135 57.284 10.0239 57.0993 9.94847C56.9146 9.87304 56.7169 9.83481 56.5174 9.83596C56.1198 9.83764 55.7388 9.99549 55.4565 10.2755L44.741 20.991L41.5279 17.7778C41.2439 17.4956 40.8598 17.3371 40.4594 17.3371C40.059 17.3371 39.6749 17.4956 39.3909 17.7778L35.1017 22.0671C34.9612 22.2087 34.8501 22.3766 34.7746 22.5613C34.6992 22.746 34.661 22.9437 34.6621 23.1432C34.6638 23.5408 34.8217 23.9218 35.1017 24.2041L42.604 31.7822C42.8855 32.064 43.2198 32.2876 43.5878 32.4402C43.9558 32.5927 44.3503 32.6712 44.7486 32.6712C45.147 32.6712 45.5414 32.5927 45.9094 32.4402C46.2774 32.2876 46.6117 32.064 46.8932 31.7822L61.8979 16.6714C62.04 16.5305 62.1527 16.3629 62.2297 16.1782C62.3066 15.9935 62.3462 15.7954 62.3462 15.5953C62.3462 15.3953 62.3066 15.1972 62.2297 15.0125C62.1527 14.8278 62.04 14.6601 61.8979 14.5192L57.5935 10.2755ZM44.7562 29.5694L38.3148 23.1432L40.467 20.991L43.6801 24.2496C43.9641 24.5318 44.3482 24.6903 44.7486 24.6903C45.149 24.6903 45.5332 24.5318 45.8171 24.2496L56.5326 13.4886L58.6848 15.6408L44.7562 29.5694Z" fill="#021939"/>
<path d="M75.7812 36.375V6.0625C75.7812 4.85659 75.3022 3.70008 74.4495 2.84737C73.5968 1.99467 72.4403 1.51563 71.2344 1.51562H25.7656C24.5597 1.51563 23.4032 1.99467 22.5505 2.84737C21.6978 3.70008 21.2188 4.85659 21.2188 6.0625V36.375C21.2188 37.5809 21.6978 38.7374 22.5505 39.5901C23.4032 40.4428 24.5597 40.9219 25.7656 40.9219H28.5241L27.2812 48.2575C27.2255 48.5872 27.2803 48.9261 27.4371 49.2213C27.594 49.5166 27.8441 49.7518 28.1485 49.8901C28.4529 50.0285 28.7945 50.0623 29.1201 49.9863C29.4457 49.9103 29.737 49.7288 29.9488 49.47L37.0873 40.9219H44.3775L47.0602 48.985C47.1598 49.2882 47.3527 49.5522 47.6112 49.7394C47.8698 49.9266 48.1808 50.0274 48.5 50.0274C48.8192 50.0274 49.1302 49.9266 49.3888 49.7394C49.6473 49.5522 49.8402 49.2882 49.9398 48.985L52.6225 40.9219H59.9127L67.0361 49.47C67.1786 49.6411 67.357 49.7787 67.5588 49.873C67.7605 49.9673 67.9805 50.016 68.2031 50.0156C68.4224 50.0141 68.639 49.9677 68.8397 49.8792C69.1442 49.7433 69.3954 49.5107 69.5543 49.2175C69.7133 48.9243 69.7711 48.5869 69.7188 48.2575L68.4759 40.9219H71.2344C72.4403 40.9219 73.5968 40.4428 74.4495 39.5901C75.3022 38.7374 75.7812 37.5809 75.7812 36.375ZM66.6875 37.8906C66.4686 37.8906 66.2523 37.938 66.0534 38.0296C65.8546 38.1212 65.6779 38.2547 65.5356 38.4211C65.3918 38.5881 65.286 38.7844 65.2258 38.9964C65.1656 39.2085 65.1524 39.4311 65.187 39.6488L65.7933 43.2408L61.792 38.4363C61.6495 38.2652 61.4711 38.1276 61.2694 38.0333C61.0677 37.939 60.8477 37.8903 60.625 37.8906H51.5312C51.2007 37.8734 50.8737 37.9648 50.6 38.1509C50.3263 38.337 50.1211 38.6075 50.0156 38.9212L48.5 43.7106L46.9844 38.9212C46.8789 38.6075 46.6737 38.337 46.4 38.1509C46.1263 37.9648 45.7993 37.8734 45.4688 37.8906H36.375C36.1523 37.8903 35.9323 37.939 35.7306 38.0333C35.5289 38.1276 35.3505 38.2652 35.208 38.4363L31.2067 43.2408L31.813 39.6488C31.8476 39.4311 31.8344 39.2085 31.7742 38.9964C31.714 38.7844 31.6083 38.5881 31.4644 38.4211C31.3221 38.2547 31.1454 38.1212 30.9466 38.0296C30.7477 37.938 30.5314 37.8906 30.3125 37.8906H25.7656C25.3637 37.8906 24.9781 37.7309 24.6939 37.4467C24.4097 37.1625 24.25 36.777 24.25 36.375V6.0625C24.25 5.66053 24.4097 5.27503 24.6939 4.99079C24.9781 4.70656 25.3637 4.54688 25.7656 4.54688H71.2344C71.6363 4.54688 72.0219 4.70656 72.3061 4.99079C72.5903 5.27503 72.75 5.66053 72.75 6.0625V36.375C72.75 36.777 72.5903 37.1625 72.3061 37.4467C72.0219 37.7309 71.6363 37.8906 71.2344 37.8906H66.6875Z" fill="#021939"/>
</svg>
