<svg width="25" height="24" viewBox="0 0 25 24" fill="none" xmlns="http://www.w3.org/2000/svg">
<g clip-path="url(#clip0_115_1554)">
<path d="M3.5 12H8.5M3.5 12C3.5 16.9706 7.52944 21 12.5 21M3.5 12C3.5 7.02944 7.52944 3 12.5 3M8.5 12H16.5M8.5 12C8.5 16.9706 10.2909 21 12.5 21M8.5 12C8.5 7.02944 10.2909 3 12.5 3M12.5 21C14.7091 21 16.5 16.9706 16.5 12M12.5 21C17.4706 21 21.5 16.9706 21.5 12M12.5 3C14.7091 3 16.5 7.02944 16.5 12M12.5 3C17.4706 3 21.5 7.02944 21.5 12M16.5 12H21.5" stroke="white" stroke-width="1.5" stroke-linecap="round" stroke-linejoin="round"/>
</g>
<defs>
<clipPath id="clip0_115_1554">
<rect width="25" height="24" fill="white"/>
</clipPath>
</defs>
</svg>
