<svg width="28" height="28" viewBox="0 0 28 28" fill="none" xmlns="http://www.w3.org/2000/svg">
<path d="M15.75 11.375C15.75 11.1429 15.6578 10.9204 15.4937 10.7563C15.3296 10.5922 15.1071 10.5 14.875 10.5H7.875C7.64294 10.5 7.42038 10.5922 7.25628 10.7563C7.09219 10.9204 7 11.1429 7 11.375C7 11.6071 7.09219 11.8296 7.25628 11.9937C7.42038 12.1578 7.64294 12.25 7.875 12.25H14.875C15.1071 12.25 15.3296 12.1578 15.4937 11.9937C15.6578 11.8296 15.75 11.6071 15.75 11.375ZM14.5833 14.875C14.5833 14.6429 14.4911 14.4204 14.3271 14.2563C14.163 14.0922 13.9404 14 13.7083 14H7.875C7.64294 14 7.42038 14.0922 7.25628 14.2563C7.09219 14.4204 7 14.6429 7 14.875C7 15.1071 7.09219 15.3296 7.25628 15.4937C7.42038 15.6578 7.64294 15.75 7.875 15.75H13.7083C13.9404 15.75 14.163 15.6578 14.3271 15.4937C14.4911 15.3296 14.5833 15.1071 14.5833 14.875ZM14.875 17.5C15.1071 17.5 15.3296 17.5922 15.4937 17.7563C15.6578 17.9204 15.75 18.1429 15.75 18.375C15.75 18.6071 15.6578 18.8296 15.4937 18.9937C15.3296 19.1578 15.1071 19.25 14.875 19.25H7.875C7.64294 19.25 7.42038 19.1578 7.25628 18.9937C7.09219 18.8296 7 18.6071 7 18.375C7 18.1429 7.09219 17.9204 7.25628 17.7563C7.42038 17.5922 7.64294 17.5 7.875 17.5H14.875Z" fill="#021939"/>
<path fill-rule="evenodd" clip-rule="evenodd" d="M7 25.3768H22.1667C23.0176 25.3768 23.8336 25.0388 24.4353 24.4371C25.037 23.8354 25.375 23.0194 25.375 22.1685V15.7518C25.375 15.5197 25.2828 15.2972 25.1187 15.1331C24.9546 14.969 24.7321 14.8768 24.5 14.8768H20.7083V5.76864C20.7083 4.10847 18.8312 3.14247 17.4802 4.10731L17.276 4.25314C16.8289 4.57051 16.294 4.74061 15.7458 4.73977C15.1975 4.73893 14.6631 4.5672 14.217 4.24847C13.4722 3.71842 12.5808 3.43359 11.6667 3.43359C10.7525 3.43359 9.86111 3.71842 9.11633 4.24847C8.67022 4.5672 8.13585 4.73893 7.58758 4.73977C7.03931 4.74061 6.50441 4.57051 6.05733 4.25314L5.85317 4.10731C4.50217 3.14247 2.625 4.10731 2.625 5.76864V21.0018C2.625 22.1621 3.08594 23.2749 3.90641 24.0954C4.72688 24.9159 5.83968 25.3768 7 25.3768ZM10.1337 5.67181C10.5816 5.35383 11.1173 5.18301 11.6667 5.18301C12.216 5.18301 12.7517 5.35383 13.1997 5.67181C13.9425 6.20278 14.8325 6.48872 15.7456 6.48977C16.6586 6.49081 17.5493 6.20691 18.2933 5.67764L18.4975 5.53181C18.5411 5.50078 18.5923 5.48234 18.6457 5.47849C18.699 5.47464 18.7524 5.48554 18.8 5.50999C18.8476 5.53444 18.8875 5.5715 18.9154 5.61712C18.9433 5.66273 18.9582 5.71515 18.9583 5.76864V22.1685C18.9583 22.6935 19.0843 23.1893 19.3083 23.6268H7C6.30381 23.6268 5.63613 23.3502 5.14384 22.858C4.65156 22.3657 4.375 21.698 4.375 21.0018V5.76864C4.37514 5.71515 4.38999 5.66273 4.41791 5.61712C4.44584 5.5715 4.48577 5.53444 4.53335 5.50999C4.58092 5.48554 4.6343 5.47464 4.68765 5.47849C4.741 5.48234 4.79226 5.50078 4.83583 5.53181L5.04 5.67764C5.78404 6.20691 6.67469 6.49081 7.58777 6.48977C8.50085 6.48872 9.39084 6.20278 10.1337 5.67181ZM20.7083 22.1685V16.6268H23.625V22.1685C23.625 22.5552 23.4714 22.9262 23.1979 23.1997C22.9244 23.4732 22.5534 23.6268 22.1667 23.6268C21.7799 23.6268 21.409 23.4732 21.1355 23.1997C20.862 22.9262 20.7083 22.5552 20.7083 22.1685Z" fill="#021939"/>
</svg>
