<svg width="68" height="67" viewBox="0 0 68 67" fill="none" xmlns="http://www.w3.org/2000/svg">
<path fill-rule="evenodd" clip-rule="evenodd" d="M18.4007 9.72823C18.1532 9.2993 18.3 8.75271 18.7287 8.50347C19.1574 8.25651 19.7053 8.40378 19.9528 8.83271L21.2692 11.1123C21.6152 11.7117 21.1781 12.4563 20.494 12.4563C20.1841 12.4563 19.8828 12.2962 19.7168 12.0086L18.4007 9.72823ZM7.90471 19.3291C8.15221 18.8995 8.69987 18.7529 9.1288 19.0006L11.4088 20.3168C12.2008 20.7741 11.8711 21.9886 10.9599 21.9886C10.8077 21.9886 10.6537 21.9501 10.5128 21.8693L8.23275 20.5525C7.80408 20.3046 7.65722 19.7565 7.90471 19.3291ZM63.0859 34.1144C63.0859 34.6098 62.6848 35.0107 62.1899 35.0107H59.5572C59.0622 35.0107 58.6611 34.6098 58.6611 34.1144C58.6611 33.6191 59.0622 33.2188 59.5572 33.2188H62.1899C62.6848 33.2188 63.0859 33.6191 63.0859 34.1144ZM7.47136 35.0107H4.83893C4.34407 35.0107 3.94287 34.6098 3.94287 34.1144C3.94287 33.6191 4.34407 33.2188 4.83893 33.2188H7.47136C7.96635 33.2188 8.36769 33.6191 8.36769 34.1144C8.36782 34.6098 7.96635 35.0107 7.47136 35.0107ZM55.2921 21.5407C55.0446 21.1126 55.1912 20.5644 55.6198 20.3168L57.9001 19.0006C58.3286 18.753 58.8767 18.8995 59.1242 19.3291C59.3716 19.7565 59.2247 20.3046 58.7962 20.5524L56.5162 21.8692C56.0937 22.1122 55.5424 21.9745 55.2921 21.5407ZM32.6181 8.07159V5.43929C32.6181 4.94323 33.0194 4.54297 33.5144 4.54297C34.009 4.54297 34.4104 4.94309 34.4104 5.43929V8.07146C34.4104 8.56605 34.009 8.96778 33.5144 8.96778C33.0195 8.96778 32.6181 8.56618 32.6181 8.07159ZM45.7597 11.1123L47.076 8.83271C47.3232 8.40378 47.8712 8.25651 48.3001 8.50347C48.7288 8.75258 48.8756 9.2993 48.6281 9.72823L47.3117 12.0086C47.0613 12.4425 46.5092 12.58 46.0876 12.3371C45.6591 12.0886 45.5122 11.5411 45.7597 11.1123ZM29.1031 16.8176C29.1031 16.2906 29.5322 15.8617 30.0593 15.8617H36.9694C37.4966 15.8617 37.9258 16.2906 37.9258 16.8176V18.8941H29.1031V16.8176ZM45.6457 22.107V23.855L35.1878 29.4571C34.1085 30.0355 32.9202 30.0355 31.8411 29.4571L21.3832 23.855V22.107C21.3832 21.3241 22.0204 20.6859 22.8038 20.6859H44.2247C45.0081 20.6859 45.6457 21.3241 45.6457 22.107ZM44.2247 37.2291C45.0081 37.2291 45.6455 36.5918 45.6455 35.8088V25.8885L36.0339 31.0366C34.4095 31.9066 32.6191 31.9064 30.9948 31.0366L21.3831 25.8885V35.8088C21.3831 36.5919 22.0203 37.2291 22.8036 37.2291H44.2247ZM19.5907 22.107V35.8088C19.5907 37.5795 21.0322 39.0217 22.8036 39.0217H44.2246C45.9964 39.0217 47.4375 37.5795 47.4375 35.8088V22.107C47.4375 20.3363 45.9964 18.8941 44.2246 18.8941H39.7178V16.8176C39.7178 15.3022 38.4849 14.0692 36.9693 14.0692H30.0592C28.5438 14.0692 27.3109 15.3022 27.3109 16.8176V18.8941H22.8038C21.0323 18.8941 19.5907 20.3363 19.5907 22.107ZM56.3878 47.2385L42.6264 55.1842C38.9781 57.2902 36.8152 58.348 32.7539 58.9476C28.463 59.5812 24.192 59.2549 20.216 58.8087C18.4133 58.607 16.7653 58.4537 15.0976 58.3345V46.7258C18.4465 46.4131 21.3922 46.463 25.164 47.4717C25.2396 47.4914 25.3171 47.5012 25.3953 47.5012H35.1038C36.5808 47.5012 37.5714 49.0098 37.0145 50.3525C36.6911 51.1309 35.9411 51.6354 35.1038 51.6354H25.3953C24.9005 51.6354 24.4993 52.0355 24.4993 52.5317C24.4993 53.0263 24.9005 53.4272 25.3953 53.4272H35.1038C36.4028 53.4272 37.5864 52.7802 38.2958 51.7299C38.6294 51.7918 38.9615 51.8242 39.2883 51.8258C40.8537 51.8306 41.6404 51.2339 42.7269 50.6056L54.4302 43.8492C55.3648 43.3093 56.5644 43.6302 57.1043 44.565C57.644 45.5003 57.3226 46.6994 56.3878 47.2385ZM13.3056 59.8363C13.3056 60.2917 12.9356 60.6608 12.4812 60.6608H8.45385C7.99932 60.6608 7.62948 60.2917 7.62948 59.8363V46.1451C7.62948 45.6898 7.99932 45.3206 8.45385 45.3206H12.4812C12.9357 45.3206 13.3056 45.6898 13.3056 46.1451V59.8363ZM53.5341 42.2965L41.831 49.0531C40.7599 49.6719 40.1972 50.1418 38.9372 50.0143C39.2032 47.7284 37.4104 45.7095 35.1039 45.7095H25.5126C21.4933 44.6493 18.3705 44.6102 14.8089 44.9529C14.3744 44.1079 13.4947 43.5288 12.4811 43.5288H8.45385C7.01094 43.5288 5.83736 44.7022 5.83736 46.1451V59.8363C5.83736 61.28 7.01094 62.4535 8.45385 62.4535H12.4812C13.8247 62.4535 14.9344 61.4349 15.0809 60.1301C16.6863 60.247 18.2779 60.3959 20.0167 60.5906C24.3071 61.0711 28.6208 61.3693 33.0156 60.7205C37.5335 60.0537 39.9991 58.7709 43.5226 56.7358L57.284 48.79C59.0746 47.757 59.6902 45.4593 58.6563 43.6683C57.6225 41.8782 55.3248 41.2621 53.5341 42.2965Z" fill="url(#paint0_linear_117_867)"/>
<defs>
<linearGradient id="paint0_linear_117_867" x1="5.46718" y1="60.0405" x2="59.1617" y2="60.5224" gradientUnits="userSpaceOnUse">
<stop stop-color="#0069AA"/>
<stop offset="1" stop-color="#009DDC"/>
</linearGradient>
</defs>
</svg>
