<svg width="97" height="97" viewBox="0 0 97 97" fill="none" xmlns="http://www.w3.org/2000/svg">
<path fill-rule="evenodd" clip-rule="evenodd" d="M9.81968 62.8156L12.5292 92.3364C12.5954 93.0567 12.0603 93.6997 11.3404 93.7658L5.88436 94.2665C5.16444 94.3326 4.52125 93.7978 4.45513 93.0775L1.74576 63.5567C1.67964 62.8368 2.21484 62.1934 2.93458 62.1273L8.39064 61.6266C9.11037 61.5607 9.75356 62.0957 9.81968 62.8156Z" fill="#64B5F6"/>
<path fill-rule="evenodd" clip-rule="evenodd" d="M9.81968 62.816L9.85132 63.1596L4.74177 63.6285C4.02185 63.6946 3.48683 64.3374 3.55295 65.0579L6.23087 94.2351L5.88436 94.2669C5.16463 94.3328 4.52125 93.7982 4.45513 93.0779L1.74576 63.5569C1.67964 62.8366 2.21484 62.1936 2.93458 62.1275L8.39064 61.6266C9.11037 61.5608 9.75356 62.0955 9.81968 62.816Z" fill="#42A5F5"/>
<path fill-rule="evenodd" clip-rule="evenodd" d="M14.0252 52.7369C15.0086 39.6273 26.043 29.2051 39.393 29.2051C52.743 29.2051 63.7771 39.6273 64.7607 52.7369C64.8384 53.7726 64.0296 54.6443 62.991 54.6443H15.7949C14.7561 54.6443 13.9475 53.7728 14.0252 52.7369Z" fill="#88AE4B"/>
<path fill-rule="evenodd" clip-rule="evenodd" d="M37.5356 29.2727C38.1493 29.228 38.7686 29.2051 39.393 29.2051C52.7432 29.2051 63.7772 39.6273 64.7608 52.7369C64.8387 53.7726 64.0297 54.6443 62.9911 54.6443H59.2762C60.3147 54.6443 61.1235 53.7726 61.0458 52.7369C60.1084 40.2403 50.0386 30.1861 37.5356 29.2727Z" fill="#88AE4B"/>
<path fill-rule="evenodd" clip-rule="evenodd" d="M95.2584 39.4141L95.2586 61.4605C95.2586 63.1182 93.9018 64.4753 92.2439 64.4753H58.4581C56.8 64.4753 55.4434 63.1184 55.4434 61.4605L55.4436 39.9841L95.2584 39.4141Z" fill="#64B5F6"/>
<path fill-rule="evenodd" clip-rule="evenodd" d="M95.2587 39.4141L95.2589 61.4605C95.2589 63.1182 93.902 64.4753 92.2441 64.4753H58.4583C57.0928 64.4753 55.9316 63.5547 55.5645 62.3034C55.8323 62.382 56.1152 62.4243 56.4075 62.4243H90.1933C91.8514 62.4243 93.208 61.0672 93.208 59.4093L93.2078 39.443L95.2587 39.4141Z" fill="#42A5F5"/>
<path fill-rule="evenodd" clip-rule="evenodd" d="M79.5463 47.9766V54.2649C79.5463 54.7181 79.1741 55.0903 78.7209 55.0903H71.9807C71.5275 55.0903 71.1553 54.719 71.1553 54.2649V48.672L79.5463 47.9766Z" fill="#88AE4B"/>
<path fill-rule="evenodd" clip-rule="evenodd" d="M79.5463 47.9766V54.2649C79.5463 54.7181 79.1741 55.0903 78.7209 55.0903H71.9807C71.5275 55.0903 71.1553 54.719 71.1553 54.2649V54.065H77.6956C78.1487 54.065 78.521 53.6927 78.521 53.2396V48.0616L79.5463 47.9766Z" fill="#88AE4B"/>
<path fill-rule="evenodd" clip-rule="evenodd" d="M57.2129 35.4316H93.4893C94.4626 35.4316 95.2588 36.2279 95.2588 37.2011V46.1662C95.2588 48.4687 93.3751 50.3524 91.0727 50.3524H59.6295C57.3271 50.3524 55.4434 48.4687 55.4434 46.1662V37.2011C55.4434 36.2279 56.2396 35.4316 57.2129 35.4316Z" fill="#42A5F5"/>
<path fill-rule="evenodd" clip-rule="evenodd" d="M91.4383 35.4316H93.4892C94.4624 35.4316 95.2587 36.2279 95.2587 37.2011V46.1661C95.2587 48.4685 93.3749 50.3522 91.0725 50.3522H89.0215C91.3239 50.3522 93.2076 48.4685 93.2076 46.1661V37.2011C93.2078 36.2279 92.4116 35.4316 91.4383 35.4316Z" fill="#2D90F1"/>
<path fill-rule="evenodd" clip-rule="evenodd" d="M66.4204 40.1543H84.2819C84.5075 40.1543 84.692 40.3388 84.692 40.5645V45.2212C84.692 45.4469 84.5075 45.6314 84.2819 45.6314H66.4204C66.1948 45.6314 66.0103 45.4469 66.0103 45.2212V40.5645C66.0103 40.3388 66.1948 40.1543 66.4204 40.1543Z" fill="#2D90F1"/>
<path fill-rule="evenodd" clip-rule="evenodd" d="M66.4201 40.1543H84.2816C84.5072 40.1543 84.6917 40.3388 84.6917 40.5645V41.1796H67.4454C67.2198 41.1796 67.0353 41.3641 67.0353 41.5898V45.6312H66.4199C66.1943 45.6312 66.0098 45.4467 66.0098 45.221V40.5643C66.01 40.3388 66.1945 40.1543 66.4201 40.1543Z" fill="#1D83D4"/>
<path fill-rule="evenodd" clip-rule="evenodd" d="M67.5257 41.6722H83.176V44.1183H67.5257V41.6722ZM66.0093 47.1495H84.6915C85.5287 47.1495 86.2069 46.4713 86.2069 45.6341V40.157C86.2069 39.3196 85.5287 38.6414 84.6915 38.6414H66.0093C65.1721 38.6414 64.4939 39.3196 64.4939 40.157V45.6341C64.4939 46.4713 65.1721 47.1495 66.0093 47.1495ZM92.2438 62.963H58.4581C57.6325 62.963 56.9597 62.2904 56.9597 61.4646V51.2055C57.7577 51.6299 58.6646 51.8705 59.6287 51.8705H69.64V54.2673C69.64 55.559 70.6899 56.6085 71.982 56.6085H78.722C80.0124 56.6085 81.0621 55.559 81.0621 54.2673V51.8705H91.0725C92.0375 51.8705 92.9461 51.6299 93.7441 51.2055V61.4646C93.7441 62.2904 93.0712 62.963 92.2438 62.963ZM15.7942 53.1305C15.7165 53.1305 15.6521 53.104 15.6021 53.051C15.553 52.9957 15.5307 52.9297 15.536 52.8519C16.4671 40.4446 26.9439 30.7254 39.3881 30.7216H39.3934H39.398C44.7798 30.7237 49.9829 32.552 54.2022 35.8937C54.0262 36.2955 53.9279 36.7387 53.9279 37.2051V53.1304H15.7942V53.1305ZM27.1591 15.4576C27.1591 8.71136 32.6472 3.22499 39.3934 3.22499C46.1387 3.22499 51.627 8.71136 51.627 15.4576C51.627 22.2021 46.1416 27.6887 39.398 27.6908C39.3963 27.6908 39.3944 27.6908 39.3934 27.6908C39.3917 27.6908 39.3898 27.6908 39.3881 27.6908C32.6445 27.6887 27.1591 22.2021 27.1591 15.4576ZM69.0332 32.0461C69.0332 31.5823 69.4253 31.19 69.8901 31.19H80.8136C81.2783 31.19 81.6678 31.5823 81.6678 32.0461V33.9202H69.0332V32.0461ZM72.6709 51.8707V53.5777H78.0313V51.8707H72.6709ZM93.7441 37.2053C93.7441 37.0687 93.6244 36.9512 93.4904 36.9512H57.2134C57.0776 36.9512 56.9595 37.0689 56.9595 37.2053V46.17C56.9595 47.6419 58.1569 48.8394 59.6285 48.8394H91.0723C92.5449 48.8394 93.7422 47.644 93.7439 46.1717V37.2053H93.7441ZM96.775 37.2053C96.775 35.392 95.3016 33.9202 93.4902 33.9202H84.6996V32.0461C84.6996 29.9015 82.9563 28.1589 80.8136 28.1589H69.8901C67.7457 28.1589 66.0023 29.9015 66.0023 32.0461V33.9202H57.2134C57.0186 33.9202 56.8273 33.9389 56.6414 33.9732C53.7517 31.5575 50.4241 29.7918 46.8715 28.7576C51.5143 26.1374 54.6579 21.1586 54.6579 15.4578C54.6579 7.04058 47.8097 0.193359 39.3934 0.193359C30.9762 0.193359 24.1281 7.04058 24.1281 15.4578C24.1281 21.1603 27.2724 26.1392 31.917 28.7593C21.3821 31.8343 13.369 41.2217 12.5129 52.6266C12.445 53.5379 12.7603 54.4453 13.3796 55.112C13.9988 55.7791 14.8789 56.1616 15.794 56.1616H53.9277V61.4646C53.9277 63.9635 55.9615 65.9944 58.4579 65.9944H92.2436C94.742 65.9944 96.7748 63.9635 96.7748 61.4646L96.775 37.2053ZM78.6352 80.4821C80.9388 79.6311 82.1208 77.066 81.272 74.7623C80.8628 73.6519 80.0408 72.7655 78.955 72.2653C77.8712 71.7672 76.663 71.7159 75.5542 72.1249L52.0398 80.7966C50.5448 83.2898 47.8607 84.7389 45.0702 84.7389C43.9238 84.7389 42.7604 84.4964 41.6542 83.9811L30.4929 78.7804C29.7342 78.4261 29.4055 77.5245 29.7594 76.7667C30.1123 76.0068 31.0147 75.6791 31.7734 76.0316L42.9347 81.2319C45.4768 82.4158 48.5095 81.3134 49.6944 78.7692C50.8783 76.227 49.7739 73.1953 47.2317 72.0094L26.3361 62.2753C24.3927 61.3695 22.0713 61.6103 19.4379 62.9916L11.7151 67.0457L13.6407 88.0202C17.5285 86.3057 21.0705 86.2737 24.8967 87.8706L36.9576 92.9083C39.4756 93.9596 41.8184 94.0581 44.1193 93.2113L78.6352 80.4821ZM5.94642 92.9022L3.27381 63.7814L8.32955 63.3193L11.0022 92.4383L5.94642 92.9022ZM80.2247 69.5124C78.4054 68.6733 76.3726 68.5916 74.5052 69.2812L53.1826 77.1437C53.3872 73.9041 51.627 70.7139 48.512 69.2625L27.6165 59.5286C24.8099 58.2193 21.4948 58.4902 18.0297 60.3089L11.4157 63.7797L11.329 62.8419C11.2602 62.0898 10.9019 61.4095 10.3201 60.9246C9.73852 60.4417 9.00496 60.2123 8.25245 60.2824L2.79658 60.7826C1.24268 60.9246 0.0944063 62.3058 0.236496 63.8595L2.94681 93.3797C3.01558 94.132 3.37403 94.8121 3.9566 95.2952C4.47039 95.7232 5.10298 95.9524 5.76076 95.9524C5.84829 95.9524 5.93581 95.9468 6.02353 95.9392L11.4796 95.439C13.0344 95.2969 14.1825 93.9158 14.0395 92.3627L13.9359 91.2353C17.4404 89.4428 20.4068 89.2799 23.7291 90.6688L35.79 95.7065C37.5495 96.4395 39.2909 96.8071 41.0011 96.8071C42.4146 96.8071 43.8067 96.5572 45.1678 96.0549L79.6844 83.3258C83.5553 81.8973 85.5452 77.5852 84.1163 73.7146C83.4263 71.8447 82.0448 70.3518 80.2247 69.5124Z" fill="#021939"/>
</svg>
