<svg width="12" height="12" viewBox="0 0 12 12" fill="none" xmlns="http://www.w3.org/2000/svg">
<path d="M6.02337 0.937506C5.89376 0.936569 5.78805 1.04087 5.78712 1.17024C5.78618 1.29962 5.89024 1.40532 6.01985 1.40626C6.14923 1.40719 6.25493 1.30313 6.25587 1.17376C6.2568 1.04438 6.15274 0.938678 6.02337 0.937506Z" fill="white"/>
<path d="M6.01233 2.34379C5.10738 2.33737 4.36627 3.06743 4.35942 3.97209C4.3526 4.87671 5.08306 5.61818 5.98772 5.625C5.99192 5.62503 5.99609 5.62505 6.00028 5.62505C6.89918 5.62505 7.63383 4.89717 7.64063 3.9967C7.64745 3.09213 6.91702 2.35061 6.01233 2.34379ZM6.00024 5.15632C5.99728 5.15632 5.99419 5.1563 5.99124 5.15627C5.34504 5.1514 4.82327 4.62176 4.82815 3.97561C4.833 3.33236 5.35772 2.81247 5.99982 2.81247C6.00277 2.81247 6.00586 2.8125 6.00882 2.81252C6.65501 2.81739 7.17678 3.34704 7.1719 3.99319C7.16703 4.63643 6.64233 5.15632 6.00024 5.15632Z" fill="white"/>
<path d="M7.02272 1.1151C6.90079 1.07184 6.76675 1.1357 6.72349 1.25772C6.68025 1.37973 6.74411 1.51368 6.86611 1.55695C7.89846 1.92283 8.58647 2.90606 8.57822 4.00357C8.57726 4.13299 8.68139 4.23872 8.81084 4.2397C8.81142 4.2397 8.81203 4.2397 8.81264 4.2397C8.94122 4.2397 9.04598 4.13592 9.04697 4.00708C9.05672 2.70989 8.24323 1.54769 7.02272 1.1151Z" fill="white"/>
<path d="M7.43815 8.82288C8.99705 6.81627 9.97128 5.7699 9.98443 4.01434C10.0009 1.80551 8.20838 0 5.99972 0C3.81684 0 2.03235 1.76785 2.01576 3.95457C2.00235 5.75774 2.99468 6.80268 4.56433 8.82255C3.00281 9.05589 2.01576 9.64223 2.01576 10.3594C2.01576 10.8398 2.45981 11.2709 3.26613 11.5732C4.00003 11.8484 4.97098 12 6.0001 12C7.02921 12 8.00016 11.8484 8.73406 11.5732C9.54038 11.2709 9.98443 10.8398 9.98443 10.3594C9.98443 9.6426 8.9983 9.05641 7.43815 8.82288ZM2.48449 3.95811C2.49911 2.02852 4.07353 0.468751 5.99977 0.468751C7.94881 0.468751 9.53023 2.06222 9.5157 4.01084C9.50323 5.67805 8.47006 6.70548 6.8206 8.85571C6.52639 9.23906 6.2562 9.6015 6.00045 9.95604C5.74545 9.60128 5.48065 9.24534 5.18203 8.85557C3.46439 6.61532 2.47178 5.66553 2.48449 3.95811ZM6.0001 11.5313C3.98796 11.5313 2.48449 10.9126 2.48449 10.3594C2.48449 9.94914 3.38327 9.43089 4.89448 9.25143C5.22853 9.68974 5.52141 10.0879 5.80866 10.4946C5.85253 10.5567 5.92383 10.5937 5.99988 10.5938C5.99995 10.5938 6.00002 10.5938 6.0001 10.5938C6.07608 10.5938 6.14735 10.5569 6.1913 10.4949C6.47583 10.0935 6.77672 9.68552 7.10792 9.25169C8.61772 9.43134 9.5157 9.94943 9.5157 10.3594C9.51568 10.9126 8.01223 11.5313 6.0001 11.5313Z" fill="white"/>
</svg>
