<svg width="14" height="14" viewBox="0 0 14 14" fill="none" xmlns="http://www.w3.org/2000/svg">
<g clip-path="url(#clip0_141_20774)">
<path d="M9.02574 4.45072C7.6642 2.44764 5.84574 1.38303 4.89343 2.03534C4.78857 2.10918 4.69745 2.20082 4.6242 2.30611C4.6242 2.3138 2.41959 6.77534 2.41959 6.77534L1.18882 7.60918C0.999876 7.73744 0.838056 7.90167 0.7126 8.09248C0.587145 8.28329 0.500513 8.49696 0.457652 8.72126C0.414792 8.94556 0.416543 9.17611 0.462806 9.39974C0.50907 9.62336 0.598938 9.83568 0.727278 10.0246L0.782663 10.1061C1.04208 10.484 1.44002 10.7444 1.89017 10.8308C2.34032 10.9172 2.80639 10.8226 3.18728 10.5676L5.1642 13.48C5.45497 13.8384 6.01343 14.1953 6.70266 13.7753C6.82476 13.6962 6.92892 13.5923 7.00841 13.4704C7.08791 13.3485 7.14098 13.2113 7.1642 13.0676C7.19205 12.9248 7.19129 12.7778 7.16198 12.6352C7.13267 12.4926 7.07538 12.3572 6.99343 12.2369L5.25189 9.66764C5.25189 9.66764 9.36882 9.33995 9.3842 9.3338C9.51274 9.3069 9.63461 9.25459 9.74266 9.17995C10.2319 8.84764 10.4073 8.15072 10.238 7.21688C10.0857 6.35687 9.65343 5.38303 9.02574 4.45072ZM1.23035 9.80303L1.17497 9.72149C1.08642 9.59113 1.02445 9.44459 0.992611 9.29025C0.960769 9.13591 0.959678 8.97681 0.989402 8.82204C1.01912 8.66728 1.07908 8.5199 1.16583 8.38834C1.25258 8.25678 1.36443 8.14362 1.49497 8.05534L2.55805 7.33226L3.96112 9.39841L2.89805 10.1215C2.76766 10.2102 2.62107 10.2722 2.46667 10.3042C2.31227 10.3362 2.15308 10.3374 1.9982 10.3079C1.84332 10.2783 1.69579 10.2185 1.56404 10.1319C1.43229 10.0452 1.3189 9.9335 1.23035 9.80303ZM6.55036 12.54C6.63444 12.6651 6.66546 12.8184 6.63662 12.9664C6.60778 13.1143 6.52143 13.2448 6.39651 13.3292C6.27115 13.4133 6.11756 13.4444 5.96935 13.4156C5.82114 13.3867 5.6904 13.3004 5.60574 13.1753L3.63497 10.2723L4.42728 9.7338L4.63651 9.71688L6.55036 12.54ZM4.47036 9.18918L2.94112 6.93688L4.39959 3.96303C4.54112 4.79841 4.95497 5.79072 5.61651 6.76457C6.27805 7.73841 7.04728 8.48918 7.77035 8.92918L4.47036 9.18918ZM9.00882 8.83072C8.27343 8.78303 7.07651 7.9538 6.06266 6.45995C5.04882 4.96611 4.71959 3.55226 4.94574 2.84918C4.98658 2.71721 5.06808 2.60152 5.1786 2.51863C5.28911 2.43575 5.423 2.3899 5.56112 2.38764C6.29036 2.38764 7.53189 3.22149 8.57497 4.75841C9.16266 5.62303 9.59035 6.52765 9.70728 7.31841C9.93651 8.83072 9.00882 8.83072 9.00882 8.83072Z" fill="white"/>
<path d="M7.10251 4.50754C6.91406 4.47054 6.72013 4.47148 6.53205 4.51031C6.34396 4.54914 6.16551 4.62508 6.00713 4.7337C5.97794 4.7539 5.95301 4.77966 5.93377 4.80949C5.91453 4.83933 5.90135 4.87267 5.89499 4.9076C5.88864 4.94252 5.88922 4.97836 5.89672 5.01307C5.90421 5.04777 5.91846 5.08066 5.93867 5.10985C5.95887 5.13904 5.98463 5.16397 6.01446 5.18321C6.0443 5.20245 6.07764 5.21563 6.11257 5.22199C6.14749 5.22834 6.18333 5.22776 6.21804 5.22026C6.25274 5.21277 6.28563 5.19852 6.31482 5.17831C6.41513 5.11023 6.52787 5.06257 6.6466 5.03805C6.76533 5.01353 6.88772 5.01264 7.0068 5.03543C7.12587 5.05822 7.23929 5.10423 7.34058 5.17085C7.44187 5.23747 7.52904 5.32339 7.59713 5.4237C7.66521 5.52401 7.71288 5.63674 7.73739 5.75547C7.76191 5.8742 7.7628 5.9966 7.74001 6.11567C7.71723 6.23474 7.67121 6.34816 7.60459 6.44945C7.53797 6.55074 7.45205 6.63792 7.35174 6.706C7.30445 6.73867 7.26884 6.78561 7.25014 6.83996C7.23145 6.89432 7.23064 6.95323 7.24783 7.00808C7.26502 7.06293 7.29932 7.11083 7.3457 7.14479C7.39208 7.17874 7.44811 7.19696 7.50559 7.19677C7.56043 7.1978 7.61422 7.18167 7.65944 7.15062C7.89873 6.98852 8.08452 6.75905 8.19329 6.49127C8.30205 6.22349 8.32889 5.92945 8.2704 5.64641C8.21191 5.36336 8.07073 5.10404 7.86474 4.9013C7.65875 4.69856 7.39722 4.56152 7.11328 4.50754H7.10251Z" fill="white"/>
<path d="M9.35763 2.5802H9.38378C9.45037 2.58017 9.51459 2.55547 9.56403 2.51086C9.61347 2.46625 9.64463 2.4049 9.65148 2.33866L9.85917 0.3202C9.86389 0.284508 9.86141 0.248231 9.85187 0.213514C9.84233 0.178798 9.82593 0.146348 9.80363 0.118084C9.78132 0.0898193 9.75358 0.0663153 9.72203 0.0489621C9.69049 0.0316088 9.65578 0.0207589 9.61997 0.0170542C9.58416 0.0133494 9.54797 0.0168652 9.51354 0.0273935C9.47911 0.0379217 9.44714 0.0552486 9.41952 0.078349C9.39191 0.101449 9.36921 0.129854 9.35276 0.161882C9.33632 0.19391 9.32646 0.228912 9.32378 0.264815L9.11763 2.28482C9.11032 2.35581 9.13149 2.4268 9.17649 2.48218C9.22149 2.53757 9.28665 2.57283 9.35763 2.5802Z" fill="white"/>
<path d="M12.8379 2.16406C12.7984 2.10447 12.7369 2.06294 12.6668 2.04853C12.5968 2.03411 12.5239 2.04799 12.464 2.08713L10.5887 3.3179C10.54 3.35006 10.503 3.39716 10.4834 3.45213C10.4638 3.50709 10.4626 3.56694 10.48 3.62265C10.4973 3.67837 10.5323 3.72693 10.5797 3.76104C10.627 3.79514 10.6842 3.81294 10.7425 3.81175C10.7969 3.813 10.8505 3.798 10.8963 3.76867L11.834 3.15329L12.7717 2.5379C12.8299 2.49697 12.8695 2.43467 12.8819 2.36463C12.8943 2.29458 12.8785 2.22247 12.8379 2.16406Z" fill="white"/>
<path d="M13.412 5.45125L11.2304 5.05894C11.16 5.04629 11.0875 5.06212 11.0288 5.10295C10.9701 5.14377 10.93 5.20625 10.9173 5.27663C10.9047 5.34702 10.9205 5.41954 10.9613 5.47826C11.0022 5.53697 11.0646 5.57706 11.135 5.58971L13.315 5.98202H13.3627C13.4313 5.98402 13.4981 5.95976 13.5494 5.91418C13.6007 5.8686 13.6327 5.80515 13.6388 5.73679C13.6448 5.66843 13.6246 5.60033 13.5822 5.5464C13.5397 5.49247 13.4783 5.45678 13.4104 5.44663L13.412 5.45125Z" fill="white"/>
</g>
<defs>
<clipPath id="clip0_141_20774">
<rect width="14" height="14" fill="white"/>
</clipPath>
</defs>
</svg>
