<svg width="87" height="87" viewBox="0 0 87 87" fill="none" xmlns="http://www.w3.org/2000/svg">
<g clip-path="url(#clip0_536_13234)">
<path d="M80.73 25.862L76.4972 29.9892L77.4962 35.8144L72.2644 33.0651L67.0307 35.8144L68.0297 29.9892L63.7969 25.862L69.6472 25.0124L72.2644 19.7109L74.8796 25.0124L80.73 25.862Z" fill="#88AE4B"/>
<path d="M55.3316 13.1265L49.3844 18.9224L50.7896 27.1078C48.1066 25.6974 46.2003 24.6944 43.4391 23.2435L36.09 27.1078L37.4932 18.9224L31.5459 13.1265L39.7639 11.9337L43.4391 4.41797L47.1143 11.9337L55.3316 13.1265Z" fill="#88AE4B"/>
<path d="M22.9566 25.862L18.7238 29.9892L19.7227 35.8144L14.491 33.0651L9.25726 35.8144L10.2562 29.9892L6.02344 25.862L11.8738 25.0124L14.491 19.7109L17.1062 25.0124L22.9566 25.862Z" fill="#88AE4B"/>
<path d="M45.1992 68.9883C45.1992 69.9268 44.4386 70.6875 43.5 70.6875C42.5614 70.6875 41.8008 69.9268 41.8008 68.9883C41.8008 68.0497 42.5614 67.2891 43.5 67.2891C44.4386 67.2891 45.1992 68.0497 45.1992 68.9883Z" fill="#021939"/>
<path d="M81.3926 53.6953C81.3926 48.0733 76.8193 43.5 71.1973 43.5C65.5752 43.5 61.002 48.0733 61.002 53.6953C61.002 59.3173 65.5752 63.8906 71.1973 63.8906C76.8193 63.8906 81.3926 59.3173 81.3926 53.6953ZM71.1973 60.4922C67.4497 60.4922 64.4004 57.4429 64.4004 53.6953C64.4004 49.9477 67.4497 46.8984 71.1973 46.8984C74.9448 46.8984 77.9941 49.9477 77.9941 53.6953C77.9941 57.4429 74.9448 60.4922 71.1973 60.4922Z" fill="#021939"/>
<path d="M71.1973 63.8906C66.9154 63.8906 62.6454 65.6682 59.7368 68.5502C55.9083 63.5189 50.0048 60.4922 43.5 60.4922C37.2706 60.4922 31.2344 63.3344 27.2638 68.5502C24.3546 65.6688 20.0853 63.8906 15.8027 63.8906C7.23695 63.8906 0 70.8939 0 79.1836V82.582C0 83.5206 0.760666 84.2812 1.69922 84.2812H85.3008C86.2393 84.2812 87 83.5206 87 82.582V79.1836C87 70.8939 79.7631 63.8906 71.1973 63.8906ZM3.39844 79.1836C3.39844 72.7359 9.07887 67.2891 15.8027 67.2891C19.4819 67.2891 23.1306 68.9193 25.3894 71.5106C23.8959 74.3952 23.1094 77.6105 23.1094 80.8828H3.39844V79.1836ZM43.5 63.8906C52.9552 63.8906 60.4922 71.5623 60.4922 80.8828H26.5078C26.5078 71.4382 34.1988 63.8906 43.5 63.8906ZM83.6016 80.8828H63.8906C63.8906 77.6105 63.1041 74.3952 61.6106 71.5106C63.8694 68.9193 67.5181 67.2891 71.1973 67.2891C77.9211 67.2891 83.6016 72.7359 83.6016 79.1836V80.8828Z" fill="#021939"/>
<path d="M25.998 53.6953C25.998 48.0733 21.4248 43.5 15.8027 43.5C10.1807 43.5 5.60742 48.0733 5.60742 53.6953C5.60742 59.3173 10.1807 63.8906 15.8027 63.8906C21.4248 63.8906 25.998 59.3173 25.998 53.6953ZM15.8027 60.4922C12.0552 60.4922 9.00586 57.4429 9.00586 53.6953C9.00586 49.9477 12.0552 46.8984 15.8027 46.8984C19.5503 46.8984 22.5996 49.9477 22.5996 53.6953C22.5996 57.4429 19.5503 60.4922 15.8027 60.4922Z" fill="#021939"/>
<path d="M57.0938 46.8984C57.0938 39.4026 50.9958 33.3047 43.5 33.3047C36.0042 33.3047 29.9062 39.4026 29.9062 46.8984C29.9062 54.3942 36.0042 60.4922 43.5 60.4922C50.9958 60.4922 57.0938 54.3942 57.0938 46.8984ZM43.5 57.0938C37.878 57.0938 33.3047 52.5205 33.3047 46.8984C33.3047 41.2764 37.878 36.7031 43.5 36.7031C49.122 36.7031 53.6953 41.2764 53.6953 46.8984C53.6953 52.5205 49.122 57.0938 43.5 57.0938Z" fill="#021939"/>
<path d="M56.9474 12.6014C56.7476 11.9861 56.216 11.5381 55.5754 11.4452L48.2462 10.3812L44.9646 3.67191C44.6799 3.08846 44.0878 2.71875 43.4386 2.71875C42.7895 2.71875 42.1974 3.08846 41.912 3.67124L38.6311 10.3812L31.3018 11.4445C30.6613 11.5374 30.1296 11.9861 29.9299 12.6014C29.7301 13.2167 29.8967 13.8918 30.36 14.3431L35.6674 19.5158L34.4149 26.8204C34.3053 27.4576 34.5675 28.1022 35.0912 28.4818C35.6116 28.8602 36.3046 28.9139 36.8807 28.6113L43.4386 25.163L49.9992 28.6113C50.5714 28.9126 51.265 28.8622 51.7887 28.4818C52.3118 28.1015 52.5739 27.4576 52.4644 26.8198L51.2106 19.5158L56.5173 14.3431C56.9806 13.8918 57.1472 13.2167 56.9474 12.6014ZM48.1978 17.7057C47.7975 18.096 47.6143 18.6589 47.7093 19.2098L48.5317 24.0015L44.2292 21.7394C43.734 21.4792 43.1426 21.4792 42.6474 21.7394L38.3463 24.0015L39.168 19.2098C39.2623 18.6582 39.0791 18.096 38.6788 17.7057L35.1981 14.3133L40.007 13.615C40.5632 13.5347 41.0431 13.1842 41.2894 12.6798L43.4386 8.28568L45.5872 12.6798C45.8341 13.1849 46.314 13.5347 46.8696 13.615L51.6792 14.3133L48.1978 17.7057Z" fill="#021939"/>
<path d="M82.3455 25.3369C82.1457 24.7216 81.6141 24.2736 80.9735 24.1807L76.008 23.4592L73.7877 18.9589C73.5016 18.3788 72.9116 18.0117 72.2644 18.0117C72.2644 18.0117 72.2644 18.0117 72.2637 18.0117C71.6172 18.0117 71.0265 18.3788 70.7404 18.9589L68.5188 23.4592L63.5526 24.1807C62.9127 24.2736 62.381 24.7216 62.1813 25.3369C61.9808 25.9522 62.1474 26.6273 62.6107 27.0786L66.2036 30.5826L65.3553 35.5276C65.2465 36.1648 65.508 36.8087 66.0317 37.189C66.5547 37.5693 67.2484 37.6198 67.8205 37.3191L72.2637 34.9847L76.7056 37.3191C77.2777 37.6198 77.972 37.5693 78.4951 37.189C79.0181 36.8093 79.2796 36.1648 79.1708 35.5276L78.3225 30.5826L81.9161 27.0786C82.3794 26.6273 82.5453 25.9522 82.3455 25.3369ZM75.311 28.7732C74.9101 29.1635 74.7276 29.7257 74.8225 30.2766L75.2393 32.7086L73.0549 31.561C72.5598 31.3008 71.9684 31.3008 71.4739 31.561L69.2874 32.7093L69.7049 30.2766C69.7992 29.7257 69.6167 29.1635 69.2164 28.7732L67.4482 27.0488L69.8915 26.6943C70.445 26.614 70.9236 26.2662 71.1712 25.7651L72.2637 23.5514L73.3556 25.7644C73.6032 26.2662 74.0818 26.614 74.6353 26.6943L77.0786 27.0488L75.311 28.7732Z" fill="#021939"/>
<path d="M24.5721 25.3369C24.3723 24.7216 23.8406 24.2736 23.2001 24.1807L18.2345 23.4592L16.0143 18.9589C15.7282 18.3788 15.1381 18.0117 14.491 18.0117C13.8438 18.0117 13.253 18.3788 12.967 18.9589L10.7454 23.4592L5.77914 24.1807C5.13927 24.2736 4.6076 24.7216 4.40781 25.3369C4.20736 25.9522 4.37396 26.6273 4.83726 27.0786L8.43018 30.5826L7.58256 35.5276C7.47304 36.1648 7.73523 36.8087 8.25827 37.189C8.78131 37.5693 9.47494 37.6198 10.0478 37.3191L14.4903 34.9847L18.9322 37.3191C19.5083 37.6218 20.2013 37.5673 20.7216 37.189C21.2447 36.8093 21.5069 36.1648 21.3973 35.5276L20.5491 30.5826L24.1426 27.0786C24.6059 26.6273 24.7719 25.9522 24.5721 25.3369ZM17.5369 28.7732C17.1367 29.1635 16.9542 29.7257 17.0484 30.2766L17.4659 32.7086L15.2808 31.561C14.7863 31.3008 14.1949 31.3008 13.7004 31.561L11.5133 32.7093L11.9308 30.2766C12.0258 29.7257 11.8426 29.1635 11.4423 28.7732L9.67406 27.0488L12.118 26.6943C12.6709 26.614 13.1495 26.2662 13.3971 25.7651L14.4896 23.5514L15.5815 25.7644C15.8291 26.2662 16.3077 26.614 16.8612 26.6943L19.3045 27.0488L17.5369 28.7732Z" fill="#021939"/>
<path d="M50.946 69.5139C50.1614 68.9981 49.1081 69.2165 48.593 70.0011C48.0772 70.785 48.2956 71.8384 49.0802 72.3541C50.6513 73.3862 51.9071 74.8253 52.7116 76.5152C53.1138 77.3615 54.1267 77.7232 54.9757 77.319C55.8233 76.9161 56.183 75.9019 55.7801 75.0549C54.7088 72.8035 53.0368 70.8872 50.946 69.5139Z" fill="#021939"/>
</g>
<defs>
<clipPath id="clip0_536_13234">
<rect width="87" height="87" fill="white"/>
</clipPath>
</defs>
</svg>
