<svg width="59" height="65" viewBox="0 0 59 65" fill="none" xmlns="http://www.w3.org/2000/svg">
<path d="M42.9703 16.3502L42.9703 16.3504C42.3666 24.8621 36.187 31.4998 29.5142 31.4998C22.8406 31.4998 16.6509 24.8599 16.0567 16.3486C15.7612 12.0932 17.0214 8.20403 19.5533 5.36332C22.0565 2.55529 25.5828 1 29.5142 1C33.4188 1 36.9339 2.56227 39.4523 5.39182C42.004 8.259 43.2694 12.1408 42.9703 16.3502ZM54.0652 63.9997V63.9996H54.0519H4.97637V63.9995L4.96285 63.9997C4.47561 64.0063 3.99173 63.8999 3.54596 63.6865C3.1 63.4731 2.70188 63.1572 2.38244 62.759L2.38183 62.7583C1.67335 61.8769 1.3603 60.6352 1.58664 59.3324L1.58672 59.3319C2.71673 52.8084 6.2356 47.3343 11.7922 43.4777C16.7409 40.0459 23.0346 38.1426 29.5142 38.1426C35.9935 38.1426 42.2871 40.0472 47.2359 43.4776C52.7926 47.3327 56.3116 52.8069 57.4416 59.3305L57.4417 59.331C57.668 60.6337 57.355 61.8755 56.6465 62.7568L56.6456 62.7579C56.3263 63.1563 55.9282 63.4724 55.4822 63.686C55.0364 63.8996 54.5525 64.0062 54.0652 63.9997Z" stroke="url(#paint0_linear_117_854)" stroke-width="2"/>
<defs>
<linearGradient id="paint0_linear_117_854" x1="2.00901" y1="62.2917" x2="54.6668" y2="62.7045" gradientUnits="userSpaceOnUse">
<stop stop-color="#0069AA"/>
<stop offset="1" stop-color="#009DDC"/>
</linearGradient>
</defs>
</svg>
