<svg width="50" height="51" viewBox="0 0 50 51" fill="none" xmlns="http://www.w3.org/2000/svg">
<rect y="0.5" width="50" height="50" rx="25" fill="url(#paint0_linear_115_1456)"/>
<g clip-path="url(#clip0_115_1456)">
<g clip-path="url(#clip1_115_1456)">
<g clip-path="url(#clip2_115_1456)">
<mask id="mask0_115_1456" style="mask-type:luminance" maskUnits="userSpaceOnUse" x="15" y="15" width="20" height="21">
<path d="M34.5999 15.9004H15.3999V35.1004H34.5999V15.9004Z" fill="white"/>
</mask>
<g mask="url(#mask0_115_1456)">
<path d="M33.7998 24.6998C33.5877 24.6998 33.3842 24.6156 33.2342 24.4655C33.0842 24.3155 32.9998 24.112 32.9998 23.8998C32.9982 22.203 32.3234 20.5761 31.1234 19.3762C29.9236 18.1764 28.2967 17.5015 26.5998 17.4998C26.3877 17.4998 26.1842 17.4156 26.0342 17.2655C25.8842 17.1155 25.7998 16.912 25.7998 16.6998C25.7998 16.4877 25.8842 16.2842 26.0342 16.1342C26.1842 15.9841 26.3877 15.8998 26.5998 15.8998C28.7209 15.9022 30.7543 16.7458 32.2542 18.2456C33.7539 19.7454 34.5975 21.7788 34.5998 23.8998C34.5998 24.112 34.5156 24.3155 34.3655 24.4655C34.2155 24.6156 34.012 24.6998 33.7998 24.6998ZM31.3998 23.8998C31.3998 22.6268 30.8942 21.4059 29.9939 20.5057C29.0938 19.6056 27.8729 19.0998 26.5998 19.0998C26.3877 19.0998 26.1842 19.1841 26.0342 19.3342C25.8842 19.4842 25.7998 19.6877 25.7998 19.8998C25.7998 20.112 25.8842 20.3155 26.0342 20.4655C26.1842 20.6156 26.3877 20.6998 26.5998 20.6998C27.4486 20.6998 28.2625 21.037 28.8626 21.6371C29.4627 22.2372 29.7998 23.0512 29.7998 23.8998C29.7998 24.112 29.8842 24.3155 30.0342 24.4655C30.1842 24.6156 30.3877 24.6998 30.5998 24.6998C30.812 24.6998 31.0155 24.6156 31.1655 24.4655C31.3156 24.3155 31.3998 24.112 31.3998 23.8998ZM33.1462 33.631L33.8742 32.7918C34.3376 32.327 34.5978 31.6974 34.5978 31.041C34.5978 30.3847 34.3376 29.7551 33.8742 29.2902C33.8494 29.2654 31.9246 27.7846 31.9246 27.7846C31.4627 27.3449 30.849 27.1001 30.2113 27.101C29.5735 27.1018 28.9606 27.3484 28.4998 27.7894L26.975 29.0742C25.7304 28.5591 24.5998 27.8032 23.6481 26.8498C22.6964 25.8966 21.9424 24.7646 21.4294 23.519L22.7094 21.999C23.1508 21.5384 23.3977 20.9253 23.3987 20.2874C23.3998 19.6494 23.1549 19.0355 22.715 18.5734C22.715 18.5734 21.2326 16.651 21.2078 16.6262C20.7514 16.1668 20.1325 15.9055 19.485 15.8986C18.8374 15.8917 18.2132 16.1399 17.747 16.5894L16.827 17.3894C11.3918 23.695 23.0958 35.3086 29.6094 35.0998C30.2672 35.1037 30.919 34.9757 31.5265 34.7234C32.1339 34.4711 32.6847 34.0997 33.1462 33.631Z" fill="white"/>
</g>
</g>
</g>
</g>
<defs>
<linearGradient id="paint0_linear_115_1456" x1="1.28866" y1="48.4167" x2="46.6826" y2="48.8155" gradientUnits="userSpaceOnUse">
<stop stop-color="#0069AA"/>
<stop offset="1" stop-color="#009DDC"/>
</linearGradient>
<clipPath id="clip0_115_1456">
<rect width="20" height="20" fill="white" transform="translate(15 15.5)"/>
</clipPath>
<clipPath id="clip1_115_1456">
<rect width="20" height="20" fill="white" transform="translate(15 15.5)"/>
</clipPath>
<clipPath id="clip2_115_1456">
<rect width="19.2" height="20" fill="white" transform="translate(15.3999 15.5)"/>
</clipPath>
</defs>
</svg>
