<svg width="70" height="43" viewBox="0 0 70 43" fill="none" xmlns="http://www.w3.org/2000/svg">
<path fill-rule="evenodd" clip-rule="evenodd" d="M30.7903 4.76953L14.4019 4.78793L9.92773 25.0354L26.8787 41.6961C28.2501 43.0575 30.4947 43.0567 31.8659 41.6959C33.2244 40.3475 33.2375 38.148 31.903 36.7837L36.5482 41.394C37.9196 42.7553 40.1642 42.7546 41.5354 41.3935C42.8907 40.0484 42.907 37.8556 41.5818 36.4909L44.3444 39.2329C45.7158 40.5943 47.9604 40.5935 49.3316 39.2327C50.7025 37.8721 50.7032 35.6443 49.3316 34.2832L48.9197 33.8754C50.2913 35.2335 52.5335 35.2316 53.9036 33.8717C55.067 32.7171 55.2434 30.9386 54.4324 29.5944L55.3847 29.179L30.7903 4.76953Z" fill="#EFC7A4"/>
<path fill-rule="evenodd" clip-rule="evenodd" d="M23.3477 38.2265L26.878 41.696C28.2494 43.0573 30.4941 43.0566 31.8652 41.6957L20.2565 30.1742C19.5661 29.4888 18.4362 29.4888 17.7455 30.1742C17.0549 30.8594 17.0549 31.9812 17.7455 32.6664L23.3477 38.2265ZM32.1435 37.057L27.415 32.364C26.7243 31.6785 26.7243 30.5571 27.415 29.8718C28.1054 29.1864 29.2354 29.1864 29.926 29.8718L41.5344 41.3933C40.1633 42.7544 37.9184 42.7552 36.5473 41.3938L31.902 36.7835C31.9883 36.8711 32.0686 36.9625 32.1435 37.057ZM41.8147 36.7568C41.7423 36.6651 41.6642 36.5763 41.5811 36.4907L44.3437 39.2327C45.7151 40.5941 47.9598 40.5933 49.3309 39.2325L37.7222 27.711C37.0318 27.0256 35.9016 27.0256 35.2112 27.711C34.5206 28.3965 34.5206 29.5177 35.2112 30.2032L41.8147 36.7568ZM49.6099 34.595C49.5241 34.4868 49.4315 34.3826 49.3311 34.283L48.9192 33.8752C50.2909 35.2333 52.5331 35.2314 53.9032 33.8715L42.2945 22.35C41.6039 21.6646 40.4739 21.6646 39.7835 22.35C39.0929 23.0355 39.0929 24.157 39.7835 24.8422L49.6099 34.595Z" fill="#D5A889"/>
<path fill-rule="evenodd" clip-rule="evenodd" d="M9.71996 27.0734L14.9095 4.58443C15.2409 3.14804 14.3281 1.70381 12.8811 1.37494L8.71031 0.426834C7.26306 0.0979644 5.80814 1.00389 5.47653 2.44002L0.28672 24.929C-0.0446397 26.3651 0.868143 27.8096 2.31515 28.1385L6.48593 29.0866C7.93319 29.4157 9.3886 28.5098 9.71996 27.0734Z" fill="url(#paint0_linear_536_13108)"/>
<path fill-rule="evenodd" clip-rule="evenodd" d="M55.2002 6.10184L52.3423 7.32437C50.6284 8.06427 48.8308 7.94557 47.1984 7.04087C40.2678 3.19744 37.9367 0.989033 33.9784 2.45779C32.9737 2.83056 31.9119 3.66413 30.7901 4.77017C27.9356 7.58433 24.6932 12.162 21.0149 15.3982C20.8632 15.5316 20.7819 15.7014 20.7732 15.9025C20.7646 16.1033 20.8308 16.2794 20.9704 16.4253C24.9484 20.5853 29.219 18.309 33.4551 15.3977C35.8104 13.7791 38.9258 14.058 40.9515 16.0682L53.9037 28.9231C54.1115 29.1293 54.2879 29.3555 54.4327 29.5955L60.0621 27.1527L55.2002 6.10184Z" fill="#D5A889"/>
<path fill-rule="evenodd" clip-rule="evenodd" d="M59.8486 27.0734C60.18 28.5098 61.6354 29.4154 63.0824 29.0866L67.2532 28.1385C68.7002 27.8096 69.6132 26.3651 69.2816 24.929L64.092 2.44002C63.7607 1.00389 62.3055 0.0979644 60.8582 0.426834L56.6875 1.37494C55.2402 1.70381 54.3274 3.14804 54.6588 4.58443L59.8486 27.0734Z" fill="url(#paint1_linear_536_13108)"/>
<defs>
<linearGradient id="paint0_linear_536_13108" x1="0.59913" y1="27.9543" x2="13.999" y2="28.0147" gradientUnits="userSpaceOnUse">
<stop stop-color="#0069AA"/>
<stop offset="1" stop-color="#009DDC"/>
</linearGradient>
<linearGradient id="paint1_linear_536_13108" x1="54.9712" y1="27.9543" x2="68.3712" y2="28.0146" gradientUnits="userSpaceOnUse">
<stop stop-color="#0069AA"/>
<stop offset="1" stop-color="#009DDC"/>
</linearGradient>
</defs>
</svg>
