<svg width="91" height="59" viewBox="0 0 91 59" fill="none" xmlns="http://www.w3.org/2000/svg">
<path d="M81.2568 56.4852H9.80587C9.39219 56.4852 9.05811 56.1511 9.05811 55.7374V3.77316C9.05811 3.35948 9.39219 3.02539 9.80587 3.02539H81.2568C81.6704 3.02539 82.0045 3.35948 82.0045 3.77316V55.7374C82.0045 56.1511 81.6704 56.4852 81.2568 56.4852Z" stroke="#021939" stroke-width="5"/>
<path d="M58.5227 41.1236C56.7283 41.1236 55.2749 39.6702 55.2749 37.8758V28.1325C55.2749 26.3381 56.7283 24.8848 58.5227 24.8848C60.3171 24.8848 61.7704 26.3381 61.7704 28.1325V37.8758C61.7704 39.6702 60.3171 41.1236 58.5227 41.1236Z" fill="#021939"/>
<path d="M58.5227 50.8666C60.3164 50.8666 61.7704 49.4126 61.7704 47.6189C61.7704 45.8252 60.3164 44.3711 58.5227 44.3711C56.729 44.3711 55.2749 45.8252 55.2749 47.6189C55.2749 49.4126 56.729 50.8666 58.5227 50.8666Z" fill="#021939"/>
<path d="M68.2658 41.1236C66.4714 41.1236 65.0181 39.6702 65.0181 37.8758V28.1325C65.0181 26.3381 66.4714 24.8848 68.2658 24.8848C70.0602 24.8848 71.5136 26.3381 71.5136 28.1325V37.8758C71.5136 39.6702 70.0602 41.1236 68.2658 41.1236Z" fill="#021939"/>
<path d="M68.2658 50.8666C70.0595 50.8666 71.5136 49.4126 71.5136 47.6189C71.5136 45.8252 70.0595 44.3711 68.2658 44.3711C66.4721 44.3711 65.0181 45.8252 65.0181 47.6189C65.0181 49.4126 66.4721 50.8666 68.2658 50.8666Z" fill="#021939"/>
<path d="M84.5042 50.8669V24.8848H81.2564C79.462 24.8848 78.0086 26.3381 78.0086 28.1325C78.0086 29.9269 79.462 31.3803 81.2564 31.3803H79.6325C77.8381 31.3803 76.3848 32.8337 76.3848 34.6281C76.3848 36.4225 77.8381 37.8758 79.6325 37.8758H81.2564C79.462 37.8758 78.0086 39.3292 78.0086 41.1236C78.0086 42.918 79.462 44.3714 81.2564 44.3714H82.8803C81.0859 44.3714 79.6325 45.8247 79.6325 47.6191C79.6325 49.4135 81.0859 50.8669 82.8803 50.8669H84.5042Z" fill="#021939"/>
<path d="M6.55811 24.8848V50.8669H8.18199C9.97638 50.8669 11.4298 49.4135 11.4298 47.6191C11.4298 45.8247 9.97638 44.3714 8.18199 44.3714H9.80587C11.6003 44.3714 13.0536 42.918 13.0536 41.1236C13.0536 39.3292 11.6003 37.8758 9.80587 37.8758H11.4298C13.2241 37.8758 14.6775 36.4225 14.6775 34.6281C14.6775 32.8337 13.2241 31.3803 11.4298 31.3803H9.80587C11.6003 31.3803 13.0536 29.9269 13.0536 28.1325C13.0536 26.3381 11.6003 24.8848 9.80587 24.8848H6.55811Z" fill="#021939"/>
<path d="M0.0625 45.9939C0.0625 47.7883 1.51588 49.2416 3.31027 49.2416H8.18192C9.97631 49.2416 11.4297 47.7883 11.4297 45.9939C11.4297 44.1995 9.97631 42.7461 8.18192 42.7461H3.31027C1.51588 42.7461 0.0625 44.1995 0.0625 45.9939Z" fill="#F0C8A0"/>
<path d="M0.0625 39.4997C0.0625 41.2941 1.51588 42.7475 3.31027 42.7475H9.8058C11.6002 42.7475 13.0536 41.2941 13.0536 39.4997C13.0536 37.7053 11.6002 36.252 9.8058 36.252H3.31027C1.51588 36.252 0.0625 37.7053 0.0625 39.4997Z" fill="#F0C8A0"/>
<path d="M0.0625 33.0036C0.0625 34.798 1.51588 36.2514 3.31027 36.2514H11.4297C13.2241 36.2514 14.6775 34.798 14.6775 33.0036C14.6775 31.2092 13.2241 29.7559 11.4297 29.7559H3.31027C1.51588 29.7559 0.0625 31.2092 0.0625 33.0036Z" fill="#F0C8A0"/>
<path d="M0.0625 26.5075C0.0625 28.3019 1.51588 29.7553 3.31027 29.7553H9.8058C11.6002 29.7553 13.0536 28.3019 13.0536 26.5075C13.0536 24.7131 11.6002 23.2598 9.8058 23.2598H3.31027C1.51588 23.2598 0.0625 24.7131 0.0625 26.5075Z" fill="#F0C8A0"/>
<path d="M3.31027 47.6194H8.18192C9.69538 47.6194 10.9669 46.585 11.3274 45.1836C11.394 45.4434 11.4297 45.7146 11.4297 45.9955C11.4297 47.7899 9.97631 49.2433 8.18192 49.2433H3.31027C1.51588 49.2433 0.0625 47.7899 0.0625 45.9955C0.0625 45.7146 0.0982258 45.4434 0.164805 45.1836C0.525307 46.585 1.79681 47.6194 3.31027 47.6194Z" fill="#D2AA82"/>
<path d="M3.31027 41.1233H9.8058C11.3193 41.1233 12.5908 40.0889 12.9513 38.6875C13.0178 38.9473 13.0536 39.2185 13.0536 39.4994C13.0536 41.2938 11.6002 42.7472 9.8058 42.7472H3.31027C1.51588 42.7472 0.0625 41.2938 0.0625 39.4994C0.0625 39.2185 0.0982258 38.9473 0.164805 38.6875C0.525307 40.0889 1.79681 41.1233 3.31027 41.1233Z" fill="#D2AA82"/>
<path d="M3.31027 34.6272H11.4297C12.9431 34.6272 14.2146 33.5928 14.5752 32.1914C14.6417 32.4512 14.6775 32.7224 14.6775 33.0033C14.6775 34.7977 13.2241 36.2511 11.4297 36.2511H3.31027C1.51588 36.2511 0.0625 34.7977 0.0625 33.0033C0.0625 32.7224 0.0982258 32.4512 0.164805 32.1914C0.525307 33.5928 1.79681 34.6272 3.31027 34.6272Z" fill="#D2AA82"/>
<path d="M3.31027 28.1311H9.8058C11.3193 28.1311 12.5908 27.0967 12.9513 25.6953C13.0178 25.9551 13.0536 26.2263 13.0536 26.5073C13.0536 28.3016 11.6002 29.755 9.8058 29.755H3.31027C1.51588 29.755 0.0625 28.3016 0.0625 26.5073C0.0625 26.2263 0.0982258 25.9551 0.164805 25.6953C0.525307 27.0967 1.79681 28.1311 3.31027 28.1311Z" fill="#D2AA82"/>
<path d="M91 45.9939C91 47.7883 89.5466 49.2416 87.7522 49.2416H82.8806C81.0862 49.2416 79.6328 47.7883 79.6328 45.9939C79.6328 44.1995 81.0862 42.7461 82.8806 42.7461H87.7522C89.5466 42.7461 91 44.1995 91 45.9939Z" fill="#F0C8A0"/>
<path d="M90.9999 39.4997C90.9999 41.2941 89.5465 42.7475 87.7521 42.7475H81.2566C79.4622 42.7475 78.0088 41.2941 78.0088 39.4997C78.0088 37.7053 79.4622 36.252 81.2566 36.252H87.7521C89.5465 36.252 90.9999 37.7053 90.9999 39.4997Z" fill="#F0C8A0"/>
<path d="M90.9997 33.0036C90.9997 34.798 89.5463 36.2514 87.752 36.2514H79.6325C77.8381 36.2514 76.3848 34.798 76.3848 33.0036C76.3848 31.2092 77.8381 29.7559 79.6325 29.7559H87.752C89.5463 29.7559 90.9997 31.2092 90.9997 33.0036Z" fill="#F0C8A0"/>
<path d="M90.9999 26.5075C90.9999 28.3019 89.5465 29.7553 87.7521 29.7553H81.2566C79.4622 29.7553 78.0088 28.3019 78.0088 26.5075C78.0088 24.7131 79.4622 23.2598 81.2566 23.2598H87.7521C89.5465 23.2598 90.9999 24.7131 90.9999 26.5075Z" fill="#F0C8A0"/>
<path d="M87.7522 47.6194H82.8806C81.3671 47.6194 80.0956 46.585 79.7351 45.1836C79.6685 45.4434 79.6328 45.7146 79.6328 45.9955C79.6328 47.7899 81.0862 49.2433 82.8806 49.2433H87.7522C89.5466 49.2433 91 47.7899 91 45.9955C91 45.7146 90.9643 45.4434 90.8977 45.1836C90.5372 46.585 89.2657 47.6194 87.7522 47.6194Z" fill="#D2AA82"/>
<path d="M87.7521 41.1233H81.2566C79.7431 41.1233 78.4716 40.0889 78.1111 38.6875C78.0445 38.9473 78.0088 39.2185 78.0088 39.4994C78.0088 41.2938 79.4622 42.7472 81.2566 42.7472H87.7521C89.5465 42.7472 90.9999 41.2938 90.9999 39.4994C90.9999 39.2185 90.9641 38.9473 90.8976 38.6875C90.5371 40.0889 89.2656 41.1233 87.7521 41.1233Z" fill="#D2AA82"/>
<path d="M87.752 34.6272H79.6325C78.1191 34.6272 76.8476 33.5928 76.4871 32.1914C76.4205 32.4512 76.3848 32.7224 76.3848 33.0033C76.3848 34.7977 77.8381 36.2511 79.6325 36.2511H87.752C89.5463 36.2511 90.9997 34.7977 90.9997 33.0033C90.9997 32.7224 90.964 32.4512 90.8974 32.1914C90.5369 33.5928 89.2654 34.6272 87.752 34.6272Z" fill="#D2AA82"/>
<path d="M87.7521 28.1311H81.2566C79.7431 28.1311 78.4716 27.0967 78.1111 25.6953C78.0445 25.9551 78.0088 26.2263 78.0088 26.5073C78.0088 28.3016 79.4622 29.755 81.2566 29.755H87.7521C89.5465 29.755 90.9999 28.3016 90.9999 26.5073C90.9999 26.2263 90.9641 25.9551 90.8976 25.6953C90.5371 27.0967 89.2656 28.1311 87.7521 28.1311Z" fill="#D2AA82"/>
<path d="M22.7966 11.2695H68.2653C69.5075 11.2695 70.5131 12.2752 70.5131 13.5173C70.5131 14.7594 69.5075 15.7651 68.2653 15.7651H22.7966C21.5545 15.7651 20.5488 14.7594 20.5488 13.5173C20.5488 12.2752 21.5545 11.2695 22.7966 11.2695Z" stroke="url(#paint0_linear_171_26638)" stroke-width="2"/>
<path d="M22.7966 24.2598H48.7787C50.0208 24.2598 51.0265 25.2654 51.0265 26.5075C51.0265 27.7496 50.0208 28.7553 48.7787 28.7553H22.7966C21.5545 28.7553 20.5488 27.7496 20.5488 26.5075C20.5488 25.2654 21.5545 24.2598 22.7966 24.2598Z" stroke="url(#paint1_linear_171_26638)" stroke-width="2"/>
<path d="M22.7966 37.252H48.7787C50.0208 37.252 51.0265 38.2576 51.0265 39.4997C51.0265 40.7418 50.0208 41.7475 48.7787 41.7475H22.7966C21.5545 41.7475 20.5488 40.7418 20.5488 39.4997C20.5488 38.2576 21.5545 37.252 22.7966 37.252Z" stroke="url(#paint2_linear_171_26638)" stroke-width="2"/>
<path d="M58.5227 39.4986C56.7283 39.4986 55.2749 38.0452 55.2749 36.2508V26.5075C55.2749 24.7131 56.7283 23.2598 58.5227 23.2598C60.3171 23.2598 61.7704 24.7131 61.7704 26.5075V36.2508C61.7704 38.0452 60.3171 39.4986 58.5227 39.4986Z" fill="#88AE4B"/>
<path d="M58.5227 49.2416C60.3164 49.2416 61.7704 47.7876 61.7704 45.9939C61.7704 44.2002 60.3164 42.7461 58.5227 42.7461C56.729 42.7461 55.2749 44.2002 55.2749 45.9939C55.2749 47.7876 56.729 49.2416 58.5227 49.2416Z" fill="#88AE4B"/>
<path d="M68.2658 39.4986C66.4714 39.4986 65.0181 38.0452 65.0181 36.2508V26.5075C65.0181 24.7131 66.4714 23.2598 68.2658 23.2598C70.0602 23.2598 71.5136 24.7131 71.5136 26.5075V36.2508C71.5136 38.0452 70.0602 39.4986 68.2658 39.4986Z" fill="#88AE4B"/>
<path d="M68.2658 49.2416C70.0595 49.2416 71.5136 47.7876 71.5136 45.9939C71.5136 44.2002 70.0595 42.7461 68.2658 42.7461C66.4721 42.7461 65.0181 44.2002 65.0181 45.9939C65.0181 47.7876 66.4721 49.2416 68.2658 49.2416Z" fill="#88AE4B"/>
<defs>
<linearGradient id="paint0_linear_171_26638" x1="20.8881" y1="16.4944" x2="67.8371" y2="19.7945" gradientUnits="userSpaceOnUse">
<stop stop-color="#0069AA"/>
<stop offset="1" stop-color="#009DDC"/>
</linearGradient>
<linearGradient id="paint1_linear_171_26638" x1="20.3859" y1="29.4847" x2="49.8171" y2="30.7776" gradientUnits="userSpaceOnUse">
<stop stop-color="#0069AA"/>
<stop offset="1" stop-color="#009DDC"/>
</linearGradient>
<linearGradient id="paint2_linear_171_26638" x1="20.3859" y1="42.4768" x2="49.8171" y2="43.7698" gradientUnits="userSpaceOnUse">
<stop stop-color="#0069AA"/>
<stop offset="1" stop-color="#009DDC"/>
</linearGradient>
</defs>
</svg>
