<svg width="97" height="87" viewBox="0 0 97 87" fill="none" xmlns="http://www.w3.org/2000/svg">
<path fill-rule="evenodd" clip-rule="evenodd" d="M64.6348 70.9922L32.1225 71.4092L24.8993 83.8041C24.5819 84.3486 25.011 84.9458 25.5553 84.9458H71.4447C71.989 84.9458 72.4181 84.3488 72.1007 83.8041L64.6348 70.9922Z" fill="url(#paint0_linear_265_11)"/>
<path fill-rule="evenodd" clip-rule="evenodd" d="M64.6346 70.9922L60.8735 71.0405L68.3115 83.8041C68.6288 84.3488 68.1995 84.9458 67.6554 84.9458H71.4445C71.9888 84.9458 72.4179 84.3488 72.1005 83.8041L64.6346 70.9922Z" fill="#00242F"/>
<path fill-rule="evenodd" clip-rule="evenodd" d="M90.4091 4.97852C93.0963 4.97852 95.2951 7.17731 95.2951 9.86451V66.7857C95.2951 69.4729 93.0961 71.6717 90.4091 71.6717H6.59107C3.90406 71.6717 1.70508 69.4731 1.70508 66.7857V9.86451C1.70508 7.17693 3.90387 4.97852 6.59107 4.97852H90.4091Z" fill="#E5F7FF"/>
<path fill-rule="evenodd" clip-rule="evenodd" d="M90.4092 4.97852C93.0964 4.97852 95.2952 7.17731 95.2952 9.86451V66.7857C95.2952 69.4729 93.0962 71.6717 90.4092 71.6717H84.7256C87.4124 71.6717 89.6116 69.4729 89.6116 66.7857V9.86451C89.6116 7.17731 87.4128 4.97852 84.7256 4.97852H90.4092Z" fill="#CFF0FF"/>
<path fill-rule="evenodd" clip-rule="evenodd" d="M95.2949 65.3848H1.70508V68.6797C1.70508 71.3673 3.90387 73.5657 6.59089 73.5657H90.4091C93.0961 73.5657 95.2949 71.3673 95.2949 68.6797V65.3848Z" fill="#004960"/>
<path fill-rule="evenodd" clip-rule="evenodd" d="M95.295 65.3848H89.6114V68.6797C89.6114 71.3673 87.4126 73.5657 84.7256 73.5657H90.4092C93.0962 73.5657 95.295 71.3673 95.295 68.6797V65.3848Z" fill="url(#paint1_linear_265_11)"/>
<path fill-rule="evenodd" clip-rule="evenodd" d="M6.95045 64.0333C7.64744 54.7431 15.4669 47.3574 24.9277 47.3574C34.3884 47.3574 42.2077 54.7431 42.9047 64.0333C42.9598 64.7672 42.3865 65.385 41.6505 65.385H8.20463C7.46841 65.385 6.89532 64.7674 6.95045 64.0333Z" fill="#72D461"/>
<path fill-rule="evenodd" clip-rule="evenodd" d="M22.916 47.4711C23.5768 47.3968 24.2479 47.3574 24.9276 47.3574C34.3883 47.3574 42.2076 54.7433 42.9046 64.0335C42.9598 64.7674 42.3867 65.3852 41.6507 65.3852H37.6272C38.3633 65.3852 38.9366 64.7676 38.8812 64.0335C38.2344 55.4109 31.4516 48.4301 22.916 47.4711Z" fill="#3CBD52"/>
<path fill-rule="evenodd" clip-rule="evenodd" d="M49.1757 48.0293H53.8798C54.4298 48.0293 54.8784 48.4779 54.8784 49.0279V58.7037C54.8784 59.2536 54.4298 59.7023 53.8798 59.7023H49.1757C48.6257 59.7023 48.1772 59.2536 48.1772 58.7037V49.0279C48.1771 48.4779 48.6257 48.0293 49.1757 48.0293Z" fill="#FB685B"/>
<path fill-rule="evenodd" clip-rule="evenodd" d="M53.2773 48.0293H53.8798C54.4298 48.0293 54.8784 48.4779 54.8784 49.0279V58.7037C54.8784 59.2536 54.4298 59.7023 53.8798 59.7023H49.1757C48.6257 59.7023 48.1772 59.2536 48.1772 58.7037V58.0887H52.2789C52.8289 58.0887 53.2775 57.6403 53.2775 57.0903L53.2773 48.0293Z" fill="#F25244"/>
<path fill-rule="evenodd" clip-rule="evenodd" d="M60.8778 35.0938H65.5819C66.1319 35.0938 66.5805 35.5424 66.5805 36.0924V58.7042C66.5805 59.2541 66.1319 59.7028 65.5819 59.7028H60.8778C60.3278 59.7028 59.8794 59.2541 59.8794 58.7042V36.0924C59.8794 35.5424 60.3278 35.0938 60.8778 35.0938Z" fill="#72D461"/>
<path fill-rule="evenodd" clip-rule="evenodd" d="M64.9795 35.0938H65.5819C66.1319 35.0938 66.5805 35.5424 66.5805 36.0924V58.7042C66.5805 59.2541 66.1319 59.7028 65.5819 59.7028H60.8778C60.3278 59.7028 59.8794 59.2541 59.8794 58.7042V58.0892H63.9811C64.531 58.0892 64.9795 57.6408 64.9795 57.0908V35.0938Z" fill="#57C95A"/>
<path fill-rule="evenodd" clip-rule="evenodd" d="M72.5801 40.6562H77.2843C77.8342 40.6562 78.2829 41.1047 78.2829 41.6547V58.7034C78.2829 59.2533 77.8344 59.702 77.2843 59.702H72.5801C72.0302 59.702 71.5815 59.2533 71.5815 58.7034V41.6547C71.5815 41.1049 72.0302 40.6562 72.5801 40.6562Z" fill="#749943"/>
<path fill-rule="evenodd" clip-rule="evenodd" d="M76.6818 40.6562H77.2843C77.8342 40.6562 78.2829 41.1047 78.2829 41.6547V58.7034C78.2829 59.2533 77.8344 59.702 77.2843 59.702H72.5801C72.0302 59.702 71.5815 59.2533 71.5815 58.7034V58.0884H75.6832C76.2332 58.0884 76.6818 57.64 76.6818 57.09V40.6562Z" fill="#749943"/>
<path fill-rule="evenodd" clip-rule="evenodd" d="M84.2826 29.8516H88.9867C89.5367 29.8516 89.9853 30.3 89.9853 30.85V58.7032C89.9853 59.2532 89.5367 59.7018 88.9867 59.7018H84.2826C83.7326 59.7018 83.2842 59.2532 83.2842 58.7032V30.8502C83.284 30.3002 83.7326 29.8516 84.2826 29.8516Z" fill="#64B4F5"/>
<path fill-rule="evenodd" clip-rule="evenodd" d="M88.3843 29.8516H88.9867C89.5367 29.8516 89.9853 30.3 89.9853 30.85V58.7032C89.9853 59.2532 89.5367 59.7018 88.9867 59.7018H84.2826C83.7326 59.7018 83.2842 59.2532 83.2842 58.7032V58.0882H87.3858C87.9358 58.0882 88.3844 57.6398 88.3844 57.0898L88.3843 29.8516Z" fill="#42A4F4"/>
<path fill-rule="evenodd" clip-rule="evenodd" d="M33.6337 2.05469H58.8208C59.8825 2.05469 60.7485 2.92049 60.7485 3.98237V19.765C60.7485 20.8266 59.8825 21.6926 58.8208 21.6926H44.4974L36.3357 27.553V21.6926H33.6337C32.572 21.6926 31.7061 20.8266 31.7061 19.765V3.98237C31.7061 2.92068 32.572 2.05469 33.6337 2.05469Z" fill="#749943"/>
<path fill-rule="evenodd" clip-rule="evenodd" d="M58.8537 2.05469C59.9004 2.07231 60.7486 2.9311 60.7486 3.98199V19.7646C60.7486 20.8263 59.8826 21.6923 58.8209 21.6923H44.4975L36.3358 27.5526V24.2978L42.6029 19.7979H56.9264C57.9881 19.7979 58.854 18.9319 58.854 17.8702V2.08746L58.8537 2.05469ZM36.3358 21.6923V19.7977H31.7393L31.7065 19.7973C31.7242 20.8441 32.5831 21.6923 33.6339 21.6923H36.3358Z" fill="#749943"/>
<path fill-rule="evenodd" clip-rule="evenodd" d="M50.3269 38.0053L62.0305 22.7905C62.522 22.1579 63.4152 22.0115 64.0764 22.4556L74.7885 29.6315L83.2849 21.7864L82.1413 21.7319C81.3015 21.6934 80.6494 20.9831 80.6941 20.1478C80.7299 19.3106 81.4445 18.6648 82.2755 18.704L87.216 18.9372C87.645 18.9577 88.0559 19.1642 88.324 19.5073C88.6009 19.8485 88.7082 20.2916 88.6277 20.7213L87.7522 25.5815C87.6182 26.3123 86.9749 26.8261 86.2602 26.8261C86.1708 26.8261 86.0816 26.8162 85.9833 26.8011C85.1612 26.6518 84.6164 25.8612 84.7683 25.0393L84.8755 24.4426L75.9682 32.6709C75.4501 33.1462 74.6727 33.2068 74.0921 32.8164L63.5676 25.7647L52.7305 39.8531C52.4357 40.2409 51.9889 40.4462 51.5333 40.4462C51.2027 40.4462 50.881 40.3434 50.6042 40.1317C49.9427 39.6196 49.8176 38.6692 50.3269 38.0053ZM84.8037 31.3673V58.1857H88.4757V31.3673H84.8037ZM81.7749 29.8511V59.7019C81.7749 60.5391 82.4539 61.2171 83.2849 61.2171H89.9855C90.8253 61.2171 91.5043 60.5391 91.5043 59.7019V29.8511C91.5043 29.0139 90.8253 28.3358 89.9855 28.3358H83.2849C82.4539 28.336 81.7749 29.0141 81.7749 29.8511ZM49.6924 49.5428H53.3644V58.1857H49.6924V49.5428ZM48.1826 61.2171H54.8832C55.7231 61.2171 56.3932 60.5391 56.3932 59.7019V48.0276C56.3932 47.1923 55.7231 46.5114 54.8832 46.5114H48.1826C47.3428 46.5114 46.6638 47.1923 46.6638 48.0276V59.7019C46.6638 60.5391 47.3428 61.2171 48.1826 61.2171ZM65.0682 58.1857V36.607H61.3962V58.1857H65.0682ZM66.5869 33.5767H59.8863C59.0464 33.5767 58.3674 34.2557 58.3674 35.0919V59.7019C58.3674 60.5391 59.0464 61.2171 59.8863 61.2171H66.5869C67.4178 61.2171 68.0968 60.5391 68.0968 59.7019V35.0919C68.0968 34.2557 67.4178 33.5767 66.5869 33.5767ZM76.7719 58.1857H73.0999V42.1712H76.7719V58.1857ZM78.2907 39.1399H71.5812C70.7505 39.1399 70.0713 39.8189 70.0713 40.6559V59.7017C70.0713 60.5389 70.7503 61.2169 71.5812 61.2169H78.2907C79.1217 61.2169 79.8007 60.5389 79.8007 59.7017V40.6561C79.8005 39.8189 79.1215 39.1399 78.2907 39.1399ZM35.9428 16.7832C35.9428 15.946 36.6218 15.267 37.4617 15.267H54.9994C55.8392 15.267 56.5182 15.946 56.5182 16.7832C56.5182 17.6203 55.8392 18.2984 54.9994 18.2984H37.4617C36.6218 18.2984 35.9428 17.6203 35.9428 16.7832ZM35.9428 6.96361C35.9428 6.12641 36.6218 5.44836 37.4617 5.44836H54.9994C55.8392 5.44836 56.5182 6.12641 56.5182 6.96361C56.5182 7.8008 55.8392 8.47961 54.9994 8.47961H37.4617C36.6218 8.4798 35.9428 7.8008 35.9428 6.96361ZM35.9428 11.8748C35.9428 11.0368 36.6218 10.3586 37.4617 10.3586H54.9994C55.8392 10.3586 56.5182 11.0367 56.5182 11.8748C56.5182 12.7101 55.8392 13.39 54.9994 13.39H37.4617C36.6218 13.39 35.9428 12.7101 35.9428 11.8748ZM90.4144 72.0506H6.59427C4.73592 72.0506 3.22617 70.538 3.22617 68.6797V66.9009H93.7825V68.6797C93.7825 70.538 92.2725 72.0506 90.4144 72.0506ZM70.1338 83.4292H26.8747L31.7349 75.082H65.2647L70.1338 83.4292ZM41.3748 63.8696H8.48823C9.26556 55.4367 16.4307 48.8729 24.936 48.8729C33.4324 48.8729 40.5975 55.4367 41.3748 63.8696ZM16.7077 36.6714C16.7077 32.1364 20.3974 28.444 24.936 28.444C29.4656 28.444 33.1554 32.1364 33.1554 36.6714C33.1554 41.209 29.4656 44.8997 24.936 44.8997C20.3974 44.8999 16.7077 41.2092 16.7077 36.6714ZM6.59427 6.49376C4.73592 6.49376 3.22617 8.00541 3.22617 9.86451V63.8696H5.44182C6.08502 55.5904 11.937 48.7852 19.6025 46.5902C16.0736 44.6854 13.6701 40.9555 13.6701 36.6716C13.6701 30.4632 18.7268 25.4127 24.936 25.4127C31.1362 25.4127 36.1931 30.4632 36.1931 36.6716C36.1931 40.9555 33.7897 44.6854 30.2607 46.5902C37.9262 48.7854 43.7691 55.5904 44.4125 63.8696H93.7825V9.86451C93.7825 8.00541 92.2725 6.49376 90.4144 6.49376H62.2628V19.7655C62.2628 21.6631 60.7261 23.2079 58.8231 23.2079H44.993L37.2203 28.7846C36.9613 28.9722 36.6485 29.0696 36.3358 29.0696C36.1035 29.0696 35.8623 29.0142 35.6479 28.9008C35.1386 28.6425 34.8258 28.1217 34.8258 27.5536V23.2081H33.6376C31.7345 23.2081 30.1889 21.6633 30.1889 19.7657V6.49376H6.59427ZM33.2268 3.98143V19.7653C33.2268 19.9887 33.4144 20.1763 33.6377 20.1763H36.3359C37.1758 20.1763 37.8548 20.8562 37.8548 21.6915V24.5977L43.6174 20.4621C43.8764 20.2763 44.1803 20.1763 44.5018 20.1763H58.8231C59.0464 20.1763 59.234 19.9887 59.234 19.7653V3.98143C59.234 3.75806 59.0464 3.5705 58.8231 3.5705H33.6377C33.4146 3.5705 33.2268 3.75806 33.2268 3.98143ZM90.4144 3.46232H62.2272C61.9682 1.81048 60.5475 0.539062 58.8233 0.539062H33.6377C31.9135 0.539062 30.4841 1.81048 30.2338 3.46232H6.59427C3.06532 3.46232 0.188477 6.33462 0.188477 9.86451V68.6797C0.188477 72.2096 3.06532 75.0819 6.59427 75.0819H28.2328L23.596 83.0404C23.1762 83.7524 23.1672 84.6013 23.5782 85.3097C23.9891 86.0182 24.7484 86.4604 25.5616 86.4604H71.4473C72.2602 86.4604 73.0196 86.0182 73.4307 85.3097C73.8327 84.6011 73.8327 83.7524 73.4129 83.0404L68.776 75.0819H90.4144C93.9433 75.0819 96.8113 72.2096 96.8113 68.6797V9.86451C96.8111 6.33462 93.9433 3.46232 90.4144 3.46232Z" fill="#021939"/>
<defs>
<linearGradient id="paint0_linear_265_11" x1="26.0131" y1="84.3644" x2="69.0279" y2="85.6487" gradientUnits="userSpaceOnUse">
<stop stop-color="#0069AA"/>
<stop offset="1" stop-color="#009DDC"/>
</linearGradient>
<linearGradient id="paint1_linear_265_11" x1="84.998" y1="73.2249" x2="94.5932" y2="73.3338" gradientUnits="userSpaceOnUse">
<stop stop-color="#0069AA"/>
<stop offset="1" stop-color="#009DDC"/>
</linearGradient>
</defs>
</svg>
