<svg width="67" height="66" viewBox="0 0 67 66" fill="none" xmlns="http://www.w3.org/2000/svg">
<g clip-path="url(#clip0_117_869)">
<path d="M29.3711 14.502C29.3711 13.968 28.9383 13.5352 28.4043 13.5352H15.7134C15.1795 13.5352 14.7466 13.968 14.7466 14.502C14.7466 15.0359 15.1795 15.4688 15.7134 15.4688H28.4042C28.9383 15.4688 29.3711 15.0359 29.3711 14.502Z" fill="url(#paint0_linear_117_869)"/>
<path d="M52.2831 14.502C52.2831 13.968 51.8502 13.5352 51.3163 13.5352H38.6255C38.0916 13.5352 37.6587 13.968 37.6587 14.502C37.6587 15.0359 38.0916 15.4688 38.6255 15.4688H51.3163C51.8502 15.4688 52.2831 15.0359 52.2831 14.502Z" fill="url(#paint1_linear_117_869)"/>
<path d="M17.3062 8.33208H26.8101C27.344 8.33208 27.7769 7.89921 27.7769 7.36526C27.7769 6.83132 27.344 6.39844 26.8101 6.39844H17.3062C16.7722 6.39844 16.3394 6.83132 16.3394 7.36526C16.3394 7.89921 16.7722 8.33208 17.3062 8.33208Z" fill="url(#paint2_linear_117_869)"/>
<path d="M49.722 6.39844H40.2183C39.6843 6.39844 39.2515 6.83132 39.2515 7.36526C39.2515 7.89921 39.6843 8.33208 40.2183 8.33208H49.7222C50.2561 8.33208 50.689 7.89921 50.689 7.36526C50.689 6.83132 50.2561 6.39844 49.722 6.39844Z" fill="url(#paint3_linear_117_869)"/>
<path d="M27.0252 18.877C27.0252 18.343 26.5923 17.9102 26.0584 17.9102H18.0581C17.5242 17.9102 17.0913 18.343 17.0913 18.877C17.0913 19.4109 17.5242 19.8438 18.0581 19.8438H26.0584C26.5923 19.8438 27.0252 19.4109 27.0252 18.877Z" fill="url(#paint4_linear_117_869)"/>
<path d="M40.9702 17.9102C40.4363 17.9102 40.0034 18.343 40.0034 18.877C40.0034 19.4109 40.4363 19.8438 40.9702 19.8438H48.9705C49.5045 19.8438 49.9373 19.4109 49.9373 18.877C49.9373 18.343 49.5045 17.9102 48.9705 17.9102H40.9702Z" fill="url(#paint5_linear_117_869)"/>
<path d="M65.544 43.2802H58.4619L51.0503 24.4951L65.7982 20.4764C66.3135 20.336 66.6173 19.8047 66.4769 19.2894C66.3365 18.7742 65.8049 18.4703 65.2899 18.6107L61.1284 19.7446V5.267C61.1284 4.06955 60.1543 3.09538 58.9568 3.09538H57.3939V1.80216C57.3939 0.937174 56.6907 0.233327 55.8264 0.233327C55.6533 0.233327 55.4839 0.261042 55.3287 0.313895C52.4147 1.28484 49.3835 1.75292 46.3131 1.70187C45.7807 1.69684 45.3393 2.11889 45.3307 2.65283C45.322 3.18678 45.7477 3.62662 46.2817 3.63526C49.3989 3.6854 52.4827 3.23873 55.4603 2.30349V21.2892L50.2909 22.6978C49.75 21.8613 48.7213 21.4463 47.7269 21.7172L45.1292 22.425C44.4913 22.5989 43.9555 23.0379 43.659 23.6297C43.3629 24.2205 43.3317 24.9116 43.5724 25.5268L42.5326 25.8569C42.1154 25.9889 41.685 26.0708 41.2511 26.1004L34.4814 26.5754V2.09362L41.6386 3.19348C42.1665 3.27431 42.6599 2.91246 42.741 2.3847C42.8221 1.85695 42.46 1.36335 41.9322 1.28227L33.6614 0.0112152C33.5641 -0.00373838 33.465 -0.00373838 33.3677 0.0112152L24.3915 1.39068C23.0341 1.59964 21.6488 1.70548 20.2742 1.70548C17.3542 1.70548 14.4697 1.23728 11.7016 0.314153C11.2246 0.154692 10.696 0.234874 10.2876 0.529046C9.8792 0.823089 9.6353 1.29902 9.6353 1.80216V3.09538H8.0724C6.87496 3.09538 5.90079 4.06955 5.90079 5.267V19.4328L1.73932 18.2989C1.22394 18.1585 0.692703 18.4623 0.55232 18.9776C0.411937 19.4928 0.715777 20.0242 1.23103 20.1646L17.1233 24.4951L12.8314 35.374C12.6354 35.8707 12.8792 36.4322 13.3759 36.6282C13.8727 36.8242 14.4341 36.5805 14.63 36.0837L19.4682 23.8203C19.5424 23.632 19.7449 23.5298 19.9388 23.5825L22.5358 24.2901C22.6841 24.3304 22.7561 24.4361 22.7859 24.4956C22.8162 24.5559 22.8584 24.6789 22.8012 24.824L14.8908 44.8716C14.8346 45.0159 14.6785 45.1238 14.5223 45.1251H11.6463C11.4652 45.1251 11.3642 45.0166 11.3202 44.9519C11.2756 44.8863 11.2107 44.7505 11.2785 44.5788L12.9737 40.281C13.1696 39.7843 12.9257 39.2227 12.429 39.0268C11.9322 38.831 11.3708 39.0747 11.1749 39.5714L9.712 43.2802H1.48511C0.951167 43.2802 0.518288 43.713 0.518288 44.247C0.518288 44.7809 0.951167 45.2138 1.48511 45.2138H9.36923C9.4315 45.5051 9.54906 45.786 9.72167 46.0397C10.156 46.6777 10.8754 47.0585 11.6463 47.0585H12.5822C11.0454 48.5597 11.0305 51.0418 12.5509 52.5601C13.3685 53.3743 14.4484 53.7506 15.5293 53.6827C15.4561 54.7932 15.8655 55.8776 16.6538 56.6631C17.4387 57.4508 18.5222 57.8603 19.6321 57.7877C19.5596 58.8977 19.9688 59.9811 20.7567 60.7661C21.5422 61.5544 22.6266 61.9638 23.7371 61.8905C23.6702 62.9604 24.0438 64.0532 24.8597 64.8691C25.6138 65.6232 26.6042 66.0001 27.5948 66.0001C28.5853 66.0001 29.5758 65.6231 30.3298 64.8691L31.6432 63.5557L32.5172 64.4298C33.2128 65.1254 34.1264 65.473 35.0399 65.473C35.9535 65.473 36.8672 65.1252 37.5628 64.4296C38.0452 63.9472 38.3599 63.3599 38.5077 62.7405C39.0312 62.987 39.5988 63.1107 40.1666 63.1107C41.1616 63.1106 42.157 62.7319 42.9145 61.9743C43.618 61.2708 43.9943 60.3625 44.0445 59.4397C44.3048 59.4933 44.5693 59.5209 44.834 59.5209C45.8292 59.5209 46.8244 59.1421 47.582 58.3844C48.5407 57.4257 48.8919 56.0868 48.6376 54.8487C49.5954 54.7971 50.4884 54.4002 51.1716 53.717C51.906 52.9826 52.3104 52.0065 52.3104 50.9683C52.3104 49.93 51.9057 48.9541 51.1678 48.217L49.0675 46.1393L50.0015 45.6164C50.4109 45.3871 50.8639 45.2428 51.3296 45.1892L51.4851 45.5831C51.8388 46.4795 52.689 47.0585 53.651 47.0585H56.5279C57.2988 47.0585 58.0182 46.6776 58.4524 46.0396C58.625 45.7859 58.7425 45.5051 58.8047 45.2138H65.5439C66.0778 45.2138 66.5107 44.7809 66.5107 44.247C66.5107 43.713 66.0779 43.2802 65.544 43.2802ZM57.3938 5.02903H58.9567C59.0879 5.02903 59.1947 5.13577 59.1947 5.267V20.2716L57.3938 20.7623V5.02903ZM20.4466 21.7165C19.4522 21.4467 18.4235 21.8618 17.8828 22.6978L11.5689 20.9774V14.3038C11.5689 13.7699 11.1361 13.337 10.6021 13.337C10.0682 13.337 9.6353 13.7699 9.6353 14.3038V20.4504L7.83443 19.9596V5.267C7.83443 5.13577 7.94117 5.02903 8.0724 5.02903H9.6353V9.79199C9.6353 10.3259 10.0682 10.7588 10.6021 10.7588C11.1361 10.7588 11.5689 10.3259 11.5689 9.79199V2.30362C14.3882 3.19 17.3141 3.63912 20.2742 3.63912C21.7469 3.63912 23.2312 3.52568 24.6854 3.30177L32.5477 2.09349V26.8219C31.8688 26.9865 31.2187 27.2419 30.6128 27.581L24.4307 25.9627L24.6006 25.5323C24.843 24.9149 24.8117 24.2211 24.5145 23.6284C24.218 23.0373 23.6825 22.5985 23.0449 22.4244L20.4466 21.7165ZM13.9181 51.1928C13.1638 50.4385 13.1638 49.2113 13.9181 48.4571L15.3909 46.9841C15.754 46.6252 16.2418 46.4169 16.7587 46.4176C17.2754 46.4176 17.7611 46.6188 18.1266 46.9843C18.8808 47.7385 18.8808 48.9657 18.1266 49.7199L16.6537 51.1928C15.8997 51.947 14.6725 51.9472 13.9181 51.1928ZM18.021 55.2957C17.2668 54.5415 17.2668 53.3143 18.021 52.5601L20.6183 49.9629C21.3725 49.2086 22.5998 49.2086 23.354 49.9629C24.1081 50.7171 24.1083 51.9442 23.354 52.6984L20.7566 55.2957C20.0025 56.05 18.7751 56.05 18.021 55.2957ZM22.124 59.3987C21.3697 58.6444 21.3697 57.4172 22.124 56.6629C22.3178 56.4691 24.9123 53.8746 25.0315 53.7554C25.7858 53.0011 27.013 53.0013 27.7671 53.7554C28.5214 54.5096 28.5214 55.7369 27.7671 56.4911C27.1603 57.098 25.4885 58.7698 24.8597 59.3987C24.1054 60.1529 22.8781 60.1529 22.124 59.3987ZM28.9626 63.5016C28.2084 64.2559 26.9811 64.2559 26.2269 63.5016C25.4726 62.7474 25.4726 61.5201 26.2269 60.7659L28.1846 58.8083L28.1853 58.8076L28.1859 58.807C28.9402 58.0534 30.167 58.0536 30.921 58.8076C31.6753 59.5619 31.6753 60.7891 30.921 61.5432L28.9626 63.5016ZM49.0567 43.9294L47.657 44.7131L46.4946 43.5694C46.1139 43.195 45.5017 43.2 45.1274 43.5805C45.1218 43.5862 45.1172 43.5924 45.1118 43.5981C44.7425 43.9781 44.7475 44.5854 45.1251 44.9588L49.805 49.5885C50.174 49.9571 50.3771 50.447 50.3771 50.9685C50.3771 51.49 50.1738 51.9807 49.8046 52.3497C49.4361 52.7183 48.946 52.9212 48.4244 52.9212C47.9086 52.9212 47.4234 52.7226 47.056 52.3621L44.2142 49.5203C43.8366 49.1427 43.2244 49.1427 42.847 49.5203C42.4694 49.8979 42.4694 50.5101 42.847 50.8875L46.215 54.2556C46.9763 55.0169 46.9763 56.2557 46.215 57.0169C45.4535 57.7783 44.2148 57.7781 43.4536 57.0169L40.0856 53.6489C39.708 53.2713 39.0958 53.2713 38.7184 53.6489C38.3408 54.0265 38.3408 54.6387 38.7184 55.0161L41.5476 57.8453C41.9164 58.2141 42.1195 58.7045 42.1195 59.2259C42.1195 59.7474 41.9164 60.2379 41.5476 60.6067C40.7862 61.368 39.5475 61.3679 38.7862 60.6067C38.2394 60.0598 37.1199 58.9404 36.5784 58.3988C36.2008 58.0213 35.5886 58.0213 35.2111 58.3988C34.8336 58.7764 34.8336 59.3886 35.2111 59.7661L36.196 60.7509C36.8332 61.3881 36.8332 62.4248 36.196 63.062C35.5588 63.6992 34.5221 63.6991 33.8849 63.062L32.9142 62.0913C33.2446 61.5139 33.4216 60.8583 33.4216 60.1751C33.4216 59.1419 33.0191 58.1705 32.2886 57.44C31.6662 56.8175 30.8826 56.4527 30.0709 56.344C30.1998 55.9552 30.2678 55.5444 30.2678 55.1229C30.2678 54.0896 29.8655 53.1183 29.1348 52.3878C28.2419 51.4948 27.0172 51.1306 25.8538 51.2953C25.8448 50.2752 25.444 49.3174 24.7217 48.5951C23.6024 47.4759 21.9626 47.1881 20.5746 47.7301C20.4495 46.9558 20.0901 46.2124 19.4943 45.6165C18.8486 44.9708 18.0146 44.582 17.1163 44.5003L23.7164 27.7739L28.71 29.0811L24.5005 33.6204C23.4562 34.7461 22.8812 36.212 22.8812 37.7483V44.1693C22.8812 44.7051 23.09 45.2085 23.4693 45.5869C23.8471 45.9638 24.3486 46.1712 24.8816 46.1712H24.8864C26.3967 46.1683 27.817 45.5789 28.8863 44.5114C29.9547 43.4429 30.5456 42.0232 30.55 40.5134L30.5522 39.7174L33.5048 36.3762C33.5094 36.3707 33.5236 36.3546 33.5518 36.3535C33.58 36.3519 33.5938 36.3662 33.5992 36.3714C35.5401 38.2292 37.4941 39.3841 39.5736 39.9022C39.9551 39.9972 40.3005 40.1887 40.5722 40.4559L41.9128 41.7822C42.1012 41.9686 42.3471 42.0617 42.5928 42.0617C42.8419 42.0617 43.091 41.9659 43.2801 41.7749C43.281 41.7739 43.2818 41.7728 43.2828 41.7719C43.2839 41.7709 43.285 41.77 43.286 41.769C43.6605 41.3883 43.6555 40.7761 43.2748 40.4017L41.9291 39.078C41.411 38.5681 40.758 38.2042 40.041 38.0258C38.2972 37.5913 36.6276 36.5932 34.9366 34.9745C34.5453 34.5999 34.0097 34.3984 33.4694 34.4215C32.9278 34.4447 32.4116 34.6914 32.0546 35.0971L28.988 38.5675C28.7502 38.8387 28.6192 39.1859 28.6192 39.5427L28.6166 40.5078C28.6137 41.503 28.224 42.4392 27.5197 43.1434C26.8151 43.847 25.8786 44.2355 24.8825 44.2375C24.8751 44.2385 24.8549 44.2376 24.8352 44.218C24.8151 44.1979 24.8151 44.1763 24.8151 44.1693V37.7483C24.8151 36.7014 25.207 35.7025 25.9185 34.9355L30.145 30.3778C31.1444 29.3018 32.5014 28.6525 33.9659 28.5495L41.3851 28.0289C41.9706 27.989 42.5533 27.8783 43.1177 27.6996L44.2842 27.3295L50.6054 43.3509C50.0637 43.4652 49.5405 43.6584 49.0567 43.9294ZM56.8539 44.9519C56.81 45.0165 56.709 45.125 56.528 45.125H53.6512C53.4883 45.125 53.3442 45.0263 53.2839 44.8736L45.3732 24.8236C45.3159 24.6782 45.3576 24.5558 45.3877 24.4958C45.4173 24.4365 45.4894 24.3311 45.6375 24.2907L48.2351 23.5829C48.2696 23.5735 48.3042 23.5691 48.3383 23.5691C48.4966 23.5691 48.6443 23.6656 48.7054 23.8205L56.8953 44.5782C56.9632 44.7504 56.8985 44.8861 56.8539 44.9519Z" fill="url(#paint6_linear_117_869)"/>
</g>
<defs>
<linearGradient id="paint0_linear_117_869" x1="15.1235" y1="15.3882" x2="28.3435" y2="16.2667" gradientUnits="userSpaceOnUse">
<stop stop-color="#0069AA"/>
<stop offset="1" stop-color="#009DDC"/>
</linearGradient>
<linearGradient id="paint1_linear_117_869" x1="38.0356" y1="15.3882" x2="51.2555" y2="16.2667" gradientUnits="userSpaceOnUse">
<stop stop-color="#0069AA"/>
<stop offset="1" stop-color="#009DDC"/>
</linearGradient>
<linearGradient id="paint2_linear_117_869" x1="16.6341" y1="8.25152" x2="26.9908" y2="8.78976" gradientUnits="userSpaceOnUse">
<stop stop-color="#0069AA"/>
<stop offset="1" stop-color="#009DDC"/>
</linearGradient>
<linearGradient id="paint3_linear_117_869" x1="39.5462" y1="8.25152" x2="49.903" y2="8.78976" gradientUnits="userSpaceOnUse">
<stop stop-color="#0069AA"/>
<stop offset="1" stop-color="#009DDC"/>
</linearGradient>
<linearGradient id="paint4_linear_117_869" x1="17.3473" y1="19.7632" x2="26.3485" y2="20.1695" gradientUnits="userSpaceOnUse">
<stop stop-color="#0069AA"/>
<stop offset="1" stop-color="#009DDC"/>
</linearGradient>
<linearGradient id="paint5_linear_117_869" x1="40.2594" y1="19.7632" x2="49.2606" y2="20.1695" gradientUnits="userSpaceOnUse">
<stop stop-color="#0069AA"/>
<stop offset="1" stop-color="#009DDC"/>
</linearGradient>
<linearGradient id="paint6_linear_117_869" x1="2.21892" y1="63.2501" x2="62.1326" y2="63.7765" gradientUnits="userSpaceOnUse">
<stop stop-color="#0069AA"/>
<stop offset="1" stop-color="#009DDC"/>
</linearGradient>
<clipPath id="clip0_117_869">
<rect width="66" height="66" fill="white" transform="translate(0.51416)"/>
</clipPath>
</defs>
</svg>
