<svg width="33" height="33" viewBox="0 0 33 33" fill="none" xmlns="http://www.w3.org/2000/svg">
<path d="M30.25 17.875C29.8853 17.875 29.5356 18.0199 29.2777 18.2777C29.0199 18.5356 28.875 18.8853 28.875 19.25V25.0429C28.8739 26.0589 28.4698 27.033 27.7514 27.7514C27.033 28.4698 26.0589 28.8739 25.0429 28.875H7.95713C6.94112 28.8739 5.96704 28.4698 5.24861 27.7514C4.53018 27.033 4.12609 26.0589 4.125 25.0429V19.25C4.125 18.8853 3.98013 18.5356 3.72227 18.2777C3.46441 18.0199 3.11467 17.875 2.75 17.875C2.38533 17.875 2.03559 18.0199 1.77773 18.2777C1.51987 18.5356 1.375 18.8853 1.375 19.25V25.0429C1.37682 26.788 2.07088 28.4611 3.30487 29.6951C4.53886 30.9291 6.212 31.6232 7.95713 31.625H25.0429C26.788 31.6232 28.4611 30.9291 29.6951 29.6951C30.9291 28.4611 31.6232 26.788 31.625 25.0429V19.25C31.625 18.8853 31.4801 18.5356 31.2223 18.2777C30.9644 18.0199 30.6147 17.875 30.25 17.875Z" fill="white"/>
<path d="M9.22183 11.9718L15.1247 6.06896V23.3747C15.1247 23.7394 15.2696 24.0891 15.5274 24.347C15.7853 24.6048 16.135 24.7497 16.4997 24.7497C16.8644 24.7497 17.2141 24.6048 17.472 24.347C17.7298 24.0891 17.8747 23.7394 17.8747 23.3747V6.06896L23.7776 11.9718C24.0369 12.2223 24.3842 12.3609 24.7448 12.3578C25.1053 12.3546 25.4501 12.21 25.7051 11.9551C25.96 11.7001 26.1046 11.3553 26.1078 10.9948C26.1109 10.6342 25.9723 10.2869 25.7218 10.0276L17.4718 1.77758C17.214 1.51981 16.8643 1.375 16.4997 1.375C16.1351 1.375 15.7854 1.51981 15.5276 1.77758L7.27758 10.0276C7.02711 10.2869 6.88852 10.6342 6.89165 10.9948C6.89479 11.3553 7.03939 11.7001 7.29433 11.9551C7.54927 12.21 7.89413 12.3546 8.25465 12.3578C8.61517 12.3609 8.9625 12.2223 9.22183 11.9718Z" fill="white"/>
</svg>
