<svg width="93" height="95" viewBox="0 0 93 95" fill="none" xmlns="http://www.w3.org/2000/svg">
<path fill-rule="evenodd" clip-rule="evenodd" d="M49.1533 68.6489C49.1533 70.1138 47.9658 71.3013 46.501 71.3013C45.0361 71.3013 43.8486 70.1138 43.8486 68.6489V7.19922C43.8486 5.73437 45.0361 4.54688 46.501 4.54688C47.9658 4.54688 49.1533 5.73437 49.1533 7.19922V68.6489Z" fill="#88AE4B"/>
<path fill-rule="evenodd" clip-rule="evenodd" d="M42.3682 34.5938H50.6323C51.1541 34.5938 51.5796 35.0193 51.5796 35.541V78.3201H41.4209V35.541C41.4209 35.0193 41.8464 34.5938 42.3682 34.5938Z" fill="url(#paint0_linear_536_13128)"/>
<path fill-rule="evenodd" clip-rule="evenodd" d="M92.3374 43.5254C92.3374 47.7057 90.643 51.4902 87.9033 54.2297C85.1638 56.9694 81.3793 58.6638 77.199 58.6638C73.0189 58.6638 69.2342 56.9694 66.4947 54.2297C63.7552 51.4902 62.0605 47.7055 62.0605 43.5254C62.0605 42.793 62.6543 42.1992 63.3867 42.1992H91.0111C91.7437 42.1994 92.3374 42.793 92.3374 43.5254Z" fill="url(#paint1_linear_536_13128)"/>
<path fill-rule="evenodd" clip-rule="evenodd" d="M30.94 43.5254C30.94 47.7057 29.2455 51.4902 26.5058 54.2297C23.7663 56.9694 19.9818 58.6638 15.8015 58.6638C11.6214 58.6638 7.83673 56.9694 5.09724 54.2297C2.35774 51.4902 0.663086 47.7055 0.663086 43.5254C0.663086 42.793 1.25683 42.1992 1.98926 42.1992H29.6136C30.3462 42.1994 30.94 42.793 30.94 43.5254Z" fill="url(#paint2_linear_536_13128)"/>
<path fill-rule="evenodd" clip-rule="evenodd" d="M46.5007 12.3667C49.3471 12.3667 51.6684 10.0451 51.6684 7.19896C51.6684 4.35262 49.3471 2.03125 46.5007 2.03125C43.6544 2.03125 41.333 4.35262 41.333 7.19896C41.333 10.0451 43.6544 12.3667 46.5007 12.3667Z" fill="url(#paint3_linear_536_13128)"/>
<path fill-rule="evenodd" clip-rule="evenodd" d="M43.4379 63.6562L30.8728 63.6705L27.4424 79.3119L40.4389 92.1826C41.4903 93.2342 43.2113 93.2337 44.2626 92.1824C45.3042 91.1408 45.3143 89.4416 44.291 88.3877L47.8525 91.9492C48.904 93.0008 50.625 93.0003 51.6763 91.9488C52.7154 90.9097 52.7279 89.2158 51.7119 88.1614L53.83 90.2797C54.8814 91.3314 56.6024 91.3308 57.6537 90.2795C58.7048 89.2284 58.7054 87.5075 57.6537 86.456L57.3379 86.1409C58.3895 87.1901 60.1087 87.1886 61.1592 86.1381C62.0511 85.2461 62.1864 83.8722 61.5646 82.8338L62.2947 82.5129L43.4379 63.6562Z" fill="#EFC7A4"/>
<path fill-rule="evenodd" clip-rule="evenodd" d="M37.7325 89.5018L40.4392 92.182C41.4906 93.2336 43.2116 93.2331 44.2629 92.1818L35.3624 83.2813C34.8331 82.7518 33.9667 82.7518 33.4372 83.2813C32.9077 83.8106 32.9077 84.6772 33.4372 85.2065L37.7325 89.5018ZM44.4762 88.5983L40.8509 84.9729C40.3213 84.4434 40.3213 83.577 40.8509 83.0477C41.3802 82.5182 42.2466 82.5182 42.7761 83.0477L51.6764 91.9482C50.6251 92.9997 48.9039 93.0002 47.8527 91.9486L44.2911 88.3871C44.3573 88.4547 44.4188 88.5254 44.4762 88.5983ZM51.8912 88.3664C51.8357 88.2956 51.7759 88.227 51.7122 88.1609L53.8303 90.2791C54.8818 91.3308 56.6028 91.3302 57.654 90.2789L48.7535 81.3784C48.2242 80.8489 47.3576 80.8489 46.8283 81.3784C46.2988 81.9079 46.2988 82.7741 46.8283 83.3037L51.8912 88.3664ZM57.8679 86.6964C57.8022 86.6128 57.7311 86.5323 57.6542 86.4554L57.3384 86.1403C58.3901 87.1895 60.1092 87.188 61.1597 86.1375L52.2592 77.237C51.7296 76.7075 50.8633 76.7075 50.3339 77.237C49.8044 77.7665 49.8044 78.6329 50.3339 79.1622L57.8679 86.6964Z" fill="#D5A889"/>
<path fill-rule="evenodd" clip-rule="evenodd" d="M27.2837 80.887L31.2626 63.5139C31.5167 62.4043 30.8168 61.2886 29.7074 61.0345L26.5096 60.3021C25.4 60.0481 24.2845 60.7479 24.0302 61.8573L20.0511 79.2304C19.7971 80.3398 20.4969 81.4557 21.6064 81.7097L24.8041 82.4422C25.9138 82.6964 27.0296 81.9966 27.2837 80.887Z" fill="#88AE4B"/>
<path fill-rule="evenodd" clip-rule="evenodd" d="M62.1539 64.6844L59.9627 65.6288C58.6487 66.2004 57.2704 66.1087 56.0189 65.4098C50.7051 62.4407 48.9178 60.7346 45.883 61.8693C45.1126 62.1572 44.2986 62.8012 43.4384 63.6556C41.2499 65.8296 38.7639 69.3659 35.9437 71.866C35.8273 71.969 35.765 72.1001 35.7584 72.2555C35.7518 72.4106 35.8025 72.5467 35.9096 72.6594C38.9596 75.8731 42.2339 74.1146 45.4817 71.8656C47.2876 70.6152 49.6762 70.8306 51.2293 72.3835L61.1599 82.3141C61.3192 82.4734 61.4545 82.6481 61.5655 82.8336L65.8816 80.9464L62.1539 64.6844Z" fill="#D5A889"/>
<path fill-rule="evenodd" clip-rule="evenodd" d="M65.7177 80.887C65.9718 81.9966 67.0877 82.6962 68.1971 82.4422L71.3949 81.7097C72.5043 81.4557 73.2043 80.3398 72.9501 79.2304L68.9712 61.8573C68.7171 60.7479 67.6015 60.0481 66.4918 60.3021L63.294 61.0345C62.1844 61.2886 61.4846 62.4043 61.7386 63.5139L65.7177 80.887Z" fill="#88AE4B"/>
<path fill-rule="evenodd" clip-rule="evenodd" d="M77.2072 56.01C70.7708 56.01 65.4576 51.1145 64.7979 44.8512H89.6166C88.9567 51.1147 83.6437 56.01 77.2072 56.01ZM77.2072 10.9296L89.0994 42.1989H65.3238L77.2072 10.9296ZM47.8242 33.268H45.1677V13.5535C45.5957 13.6443 46.0413 13.6918 46.4959 13.6918C46.9506 13.6918 47.3873 13.6443 47.8242 13.5556V33.268ZM45.4083 60.6232C44.5703 60.9397 43.7413 61.5382 42.8943 62.3264H42.7427V35.9206H50.2488V60.7315C48.6533 60.0967 47.1912 59.9584 45.4083 60.6232ZM55.366 66.5642C56.9884 67.4717 58.807 67.5704 60.4831 66.8412L61.0715 66.5853L64.1738 80.1124L61.856 81.1372L52.1568 71.443C50.1689 69.4498 47.0397 69.1677 44.7219 70.7724C41.5571 72.9641 39.4265 73.8489 37.4475 72.2783C38.9362 70.8593 40.3181 69.2185 41.5749 67.7352C43.2955 65.6908 45.0874 63.5785 46.3442 63.1086C48.1449 62.434 49.2326 62.9949 52.7362 65.0486C53.5029 65.4997 54.3764 66.0112 55.366 66.5642ZM63.1218 62.6562C63.0147 62.8248 62.9791 63.0235 63.0236 63.2151L66.9997 80.5877C67.0889 80.9803 67.4989 81.2359 67.8913 81.1466L71.0917 80.4136C71.4839 80.3246 71.7425 79.9154 71.6534 79.5232L67.6685 62.1502C67.5972 61.8112 67.2763 61.5742 66.9374 61.5742C66.8839 61.5742 66.8303 61.5801 66.7769 61.5913L63.5854 62.3246C63.3893 62.368 63.2288 62.4855 63.1218 62.6562ZM60.2156 85.1971C60.7504 84.6591 60.7504 83.7857 60.2156 83.2477L50.2846 73.3186C49.1792 72.2139 47.5122 72.0642 46.2284 72.953C43.6075 74.7676 38.7223 78.1497 34.4966 73.0719C34.033 72.5114 34.1044 71.6778 34.6659 71.2079C36.3954 69.7603 38.0001 67.8605 39.5512 66.0245C39.8454 65.6664 40.1396 65.3178 40.4338 64.9787H32.2767L29.0585 79.0626L41.3608 91.2352C41.9046 91.777 42.7783 91.7787 43.322 91.2407C43.848 90.7121 43.8569 89.8541 43.3398 89.3157L40.2286 86.1993C39.7116 85.68 39.7116 84.8408 40.2286 84.3238C40.7457 83.8067 41.5836 83.8067 42.1008 84.3238L45.1675 87.395C45.1764 87.4027 45.1853 87.41 45.1942 87.4175C45.2031 87.4308 45.2209 87.4441 45.2298 87.4573L48.7868 91.0079C49.0454 91.2655 49.3842 91.4076 49.7585 91.4076C50.124 91.4076 50.4716 91.2655 50.7302 91.0079C50.9888 90.7502 51.1313 90.4033 51.1313 90.0339C51.1313 89.6741 50.9975 89.3388 50.7569 89.0849L44.6503 82.9824C44.1333 82.4654 44.1333 81.624 44.6503 81.1068C45.1762 80.5898 46.0144 80.5898 46.5314 81.1068L52.5844 87.1599C52.5933 87.1674 52.6022 87.1752 52.6111 87.1828C52.62 87.1978 52.6378 87.211 52.6467 87.2264L54.7595 89.3388C55.0181 89.5964 55.3658 89.7385 55.7312 89.7385C56.1056 89.7385 56.4532 89.5964 56.7118 89.3388C56.9704 89.079 57.104 88.7342 57.104 88.3629C57.104 87.9935 56.9702 87.6487 56.7118 87.3893C56.6673 87.3512 56.6315 87.3112 56.6048 87.2699C56.5336 87.2072 56.4621 87.1411 56.3909 87.0729L48.7421 79.4207C48.2251 78.9037 48.2251 78.0623 48.7421 77.5451C49.2591 77.0279 50.0971 77.0279 50.6143 77.5451L58.2631 85.1971C58.5217 85.4548 58.8693 85.5969 59.2437 85.5969C59.6095 85.5969 59.9572 85.4548 60.2156 85.1971ZM25.0915 81.1466L21.9 80.4136C21.4987 80.3246 21.2492 79.9154 21.3383 79.5232L25.3143 62.1502C25.3945 61.8112 25.7065 61.5742 26.0452 61.5742C26.0987 61.5742 26.1523 61.5801 26.2057 61.5913L29.4061 62.3246C29.5933 62.3682 29.7627 62.4855 29.8697 62.6562C29.9768 62.8248 30.0035 63.0235 29.9679 63.2151L25.9829 80.5877C25.8939 80.9801 25.4837 81.2357 25.0915 81.1466ZM46.4959 3.35547C48.6087 3.35547 50.3382 5.07949 50.3382 7.19777C50.3382 9.31566 48.6087 11.0399 46.4959 11.0399C44.3743 11.0399 42.6537 9.31585 42.6537 7.19777C42.6537 5.07949 44.3741 3.35547 46.4959 3.35547ZM15.7934 56.01C9.35688 56.01 4.04367 51.1145 3.384 44.8512H28.2116C27.5431 51.1147 22.2298 56.01 15.7934 56.01ZM15.7934 10.9296L27.6857 42.1989H3.91011L15.7934 10.9296ZM92.2642 43.0533L79.1329 8.52356H91.0072C91.7381 8.52356 92.3266 7.93057 92.3266 7.19758C92.3266 6.46421 91.7381 5.87103 91.0072 5.87103H52.8521C52.2369 2.92465 49.6161 0.703125 46.4959 0.703125C43.3669 0.703125 40.746 2.92465 40.1398 5.87103H1.98451C1.25341 5.87103 0.65625 6.46402 0.65625 7.19758C0.65625 7.93057 1.2536 8.52356 1.98451 8.52356H13.868L0.745482 43.0533C0.683152 43.203 0.65644 43.3638 0.65644 43.5252C0.65644 51.8723 7.44947 58.6621 15.7937 58.6621C24.138 58.6621 30.9311 51.8723 30.9311 43.5252C30.9311 43.364 30.9043 43.2031 30.8507 43.0533L17.7193 8.52356H40.14C40.452 10.0581 41.3167 11.3936 42.5114 12.3238V33.2678H41.4148C40.6837 33.2678 40.0866 33.861 40.0866 34.5938V62.326H32.5535C32.4734 61.9493 32.3218 61.5835 32.1166 61.2461C31.6352 60.4752 30.8774 59.9409 29.995 59.7382L26.7945 59.0069C24.976 58.5864 23.1485 59.7345 22.7294 61.5589L18.7534 78.9319C18.5484 79.8127 18.7089 80.7223 19.1903 81.4931C19.6717 82.2625 20.4206 82.7966 21.303 82.9993L24.5035 83.7306C24.753 83.7895 25.0116 83.8177 25.2613 83.8177C26.5183 83.8177 27.6772 83.115 28.2654 82.0086L39.4981 93.1161C40.2826 93.9023 41.3167 94.2945 42.342 94.2945C43.376 94.2945 44.4103 93.9023 45.1948 93.1161C45.5335 92.773 45.801 92.3848 45.9971 91.9701L46.9065 92.8832C47.6643 93.6411 48.6805 94.0596 49.7593 94.0596C50.838 94.0596 51.8453 93.6409 52.6121 92.8832C52.9597 92.5288 53.245 92.1196 53.4411 91.6762C54.1097 92.1404 54.9031 92.3905 55.7322 92.3905C56.8109 92.3905 57.8271 91.972 58.5849 91.2142C59.3428 90.4543 59.7616 89.4428 59.7616 88.3646C59.7616 88.3155 59.7616 88.2661 59.7616 88.217C60.6441 88.1052 61.4554 87.7076 62.0883 87.0727C62.8461 86.3128 63.265 85.3011 63.265 84.2235C63.265 83.9583 63.2383 83.6987 63.1938 83.4449L65.1194 82.594C65.7613 83.3557 66.7151 83.8177 67.7314 83.8177C67.9811 83.8177 68.2306 83.7895 68.4892 83.7306L71.6807 82.9993C73.5082 82.5808 74.6582 80.7564 74.2393 78.9319L70.2543 61.5589C69.8352 59.7324 68.0167 58.5901 66.1892 59.0069L62.9888 59.7382C61.1613 60.1567 60.0202 61.9812 60.4391 63.8077L60.4747 63.9536L59.4227 64.4101C58.5044 64.8118 57.5683 64.7567 56.6592 64.2489C55.6964 63.7092 54.8317 63.2052 54.0739 62.7619C53.6639 62.5213 53.2805 62.2919 52.8972 62.0759V34.594C52.8972 33.861 52.3087 33.268 51.5778 33.268H50.4724V12.324C51.6669 11.3938 52.5317 10.0583 52.8527 8.52375H75.2822L62.1597 43.0535C62.0974 43.2031 62.0705 43.364 62.0705 43.5254C62.0705 51.8725 68.8635 58.6623 77.2078 58.6623C85.5521 58.6623 92.3451 51.8725 92.3451 43.5254C92.3444 43.364 92.3176 43.2031 92.2642 43.0533Z" fill="#021939"/>
<defs>
<linearGradient id="paint0_linear_536_13128" x1="41.6827" y1="76.4982" x2="50.9062" y2="76.517" gradientUnits="userSpaceOnUse">
<stop stop-color="#0069AA"/>
<stop offset="1" stop-color="#009DDC"/>
</linearGradient>
<linearGradient id="paint1_linear_536_13128" x1="62.8409" y1="57.9778" x2="90.3236" y2="58.4219" gradientUnits="userSpaceOnUse">
<stop stop-color="#0069AA"/>
<stop offset="1" stop-color="#009DDC"/>
</linearGradient>
<linearGradient id="paint2_linear_536_13128" x1="1.44342" y1="57.9778" x2="28.9261" y2="58.4219" gradientUnits="userSpaceOnUse">
<stop stop-color="#0069AA"/>
<stop offset="1" stop-color="#009DDC"/>
</linearGradient>
<linearGradient id="paint3_linear_536_13128" x1="41.5994" y1="11.936" x2="50.9827" y2="12.0185" gradientUnits="userSpaceOnUse">
<stop stop-color="#0069AA"/>
<stop offset="1" stop-color="#009DDC"/>
</linearGradient>
</defs>
</svg>
