<svg width="50" height="51" viewBox="0 0 50 51" fill="none" xmlns="http://www.w3.org/2000/svg">
<rect y="0.5" width="50" height="50" rx="25" fill="#25D366"/>
<g clip-path="url(#clip0_115_1465)">
<g clip-path="url(#clip1_115_1465)">
<g clip-path="url(#clip2_115_1465)">
<mask id="mask0_115_1465" style="mask-type:luminance" maskUnits="userSpaceOnUse" x="15" y="15" width="20" height="21">
<path d="M35 15.5H15V35.5H35V15.5Z" fill="white"/>
</mask>
<g mask="url(#mask0_115_1465)">
<path d="M25.0025 15.5H24.9975C19.4838 15.5 15 19.985 15 25.5C15 27.6876 15.705 29.715 16.9037 31.3612L15.6575 35.0762L19.5013 33.8476C21.0825 34.895 22.9688 35.5 25.0025 35.5C30.5162 35.5 35 31.0138 35 25.5C35 19.9863 30.5162 15.5 25.0025 15.5ZM30.8212 29.6212C30.58 30.3026 29.6224 30.8674 28.8588 31.0324C28.3362 31.1438 27.6538 31.2326 25.3563 30.28C22.4175 29.0626 20.525 26.0762 20.3775 25.8825C20.2363 25.6888 19.19 24.3012 19.19 22.8663C19.19 21.4313 19.9188 20.7325 20.2125 20.4325C20.4538 20.1863 20.8525 20.0737 21.235 20.0737C21.3588 20.0737 21.47 20.08 21.57 20.085C21.8637 20.0975 22.0112 20.115 22.205 20.5788C22.4462 21.16 23.0337 22.595 23.1038 22.7425C23.175 22.89 23.2463 23.09 23.1462 23.2838C23.0525 23.4838 22.97 23.5725 22.8225 23.7425C22.675 23.9125 22.535 24.0425 22.3875 24.225C22.2525 24.3838 22.1 24.5538 22.27 24.8475C22.44 25.135 23.0275 26.0937 23.8925 26.8638C25.0087 27.8574 25.9137 28.175 26.2374 28.31C26.4788 28.41 26.7662 28.3862 26.9426 28.1988C27.1662 27.9576 27.4424 27.5576 27.7238 27.1638C27.9238 26.8812 28.1762 26.8462 28.4412 26.9462C28.7112 27.04 30.14 27.7462 30.4338 27.8924C30.7274 28.04 30.9212 28.11 30.9924 28.2338C31.0624 28.3576 31.0624 28.9388 30.8212 29.6212Z" fill="white"/>
</g>
</g>
</g>
</g>
<defs>
<clipPath id="clip0_115_1465">
<rect width="20" height="20" fill="white" transform="translate(15 15.5)"/>
</clipPath>
<clipPath id="clip1_115_1465">
<rect width="20" height="20" fill="white" transform="translate(15 15.5)"/>
</clipPath>
<clipPath id="clip2_115_1465">
<rect width="20" height="20" fill="white" transform="translate(15 15.5)"/>
</clipPath>
</defs>
</svg>
